<svg xmlns="http://www.w3.org/2000/svg" width="1440" height="1400" viewBox="0 0 1440 1400" fill="none">
<style>
.small { font-family: Inter, Arial, sans-serif; font-size: 12px; fill: #7F8CA3; }
</style>
<rect x="0" y="0" width="1440" height="1400" fill="#0B1020" /><rect x="0" y="0" width="248" height="1400" fill="#09101D" /><text x="24" y="46" font-family="Inter, Arial, sans-serif" font-size="24" fill="#F3F6FC" font-weight="700" text-anchor="start">MRAP</text><text x="24" y="66" font-family="Inter, Arial, sans-serif" font-size="11" fill="#7F8CA3" font-weight="500" text-anchor="start">Market Reaction Analytics Platform</text><rect x="16" y="112" width="216" height="44" rx="12" ry="12" fill="#1D2740" stroke="#4F7CFF" stroke-width="1" /><circle cx="34" cy="134" r="6" fill="#4F7CFF" /><text x="48" y="140" font-family="Inter, Arial, sans-serif" font-size="14" fill="#F3F6FC" font-weight="600" text-anchor="start">Панель обзора</text><rect x="16" y="164" width="216" height="44" rx="12" ry="12" fill="none" /><circle cx="34" cy="186" r="6" fill="#7F8CA3" /><text x="48" y="192" font-family="Inter, Arial, sans-serif" font-size="14" fill="#A8B3C7" font-weight="500" text-anchor="start">Активы</text><rect x="16" y="216" width="216" height="44" rx="12" ry="12" fill="none" /><circle cx="34" cy="238" r="6" fill="#7F8CA3" /><text x="48" y="244" font-family="Inter, Arial, sans-serif" font-size="14" fill="#A8B3C7" font-weight="500" text-anchor="start">Новости и события</text><rect x="16" y="268" width="216" height="44" rx="12" ry="12" fill="none" /><circle cx="34" cy="290" r="6" fill="#7F8CA3" /><text x="48" y="296" font-family="Inter, Arial, sans-serif" font-size="14" fill="#A8B3C7" font-weight="500" text-anchor="start">Прогнозы</text><rect x="16" y="320" width="216" height="44" rx="12" ry="12" fill="none" /><circle cx="34" cy="342" r="6" fill="#7F8CA3" /><text x="48" y="348" font-family="Inter, Arial, sans-serif" font-size="14" fill="#A8B3C7" font-weight="500" text-anchor="start">История</text><rect x="16" y="372" width="216" height="44" rx="12" ry="12" fill="none" /><circle cx="34" cy="394" r="6" fill="#7F8CA3" /><text x="48" y="400" font-family="Inter, Arial, sans-serif" font-size="14" fill="#A8B3C7" font-weight="500" text-anchor="start">Настройки</text><rect x="16" y="1312" width="216" height="56" rx="14" ry="14" fill="#161F33" stroke="#25314D" stroke-width="1" /><circle cx="42" cy="1340" r="14" fill="#4F7CFF" opacity="0.9" /><text x="64" y="1344" font-family="Inter, Arial, sans-serif" font-size="13" fill="#F3F6FC" font-weight="600" text-anchor="start">Никита Стоянов</text><text x="64" y="1362" font-family="Inter, Arial, sans-serif" font-size="12" fill="#7F8CA3" font-weight="400" text-anchor="start">Выход</text><rect x="280" y="20" width="1152" height="72" fill="none" /><text x="280" y="64" font-family="Inter, Arial, sans-serif" font-size="24" fill="#F3F6FC" font-weight="700" text-anchor="start">Детали актива</text><rect x="736" y="34" width="320" height="44" rx="12" ry="12" fill="#12192B" stroke="#25314D" stroke-width="1" /><circle cx="756" cy="56.0" r="7" fill="none" stroke="#7F8CA3" stroke-width="1.5" /><line x1="761" y1="61.0" x2="767" y2="67.0" stroke="#7F8CA3" stroke-width="1.5" /><text x="776" y="61.0" font-family="Inter, Arial, sans-serif" font-size="14" fill="#7F8CA3" font-weight="400" text-anchor="start">Поиск по активам, новостям, прогнозам</text><rect x="1080" y="42" width="139" height="28" rx="999" ry="999" fill="#132B22" /><text x="1149.5" y="60.0" font-family="Inter, Arial, sans-serif" font-size="12" fill="#18C37E" font-weight="600" text-anchor="middle">Данные обновлены</text><rect x="1224" y="34" width="44" height="44" rx="12" ry="12" fill="#1A243A" stroke="#2B3A5B" stroke-width="1" /><text x="1246" y="62" font-family="Inter, Arial, sans-serif" font-size="18" fill="#A8B3C7" font-weight="600" text-anchor="middle">↻</text><rect x="1272" y="34" width="160" height="44" rx="12" ry="12" fill="#161F33" stroke="#25314D" stroke-width="1" /><circle cx="1298" cy="56" r="10" fill="#4F7CFF" /><text x="1318" y="61" font-family="Inter, Arial, sans-serif" font-size="13" fill="#F3F6FC" font-weight="600" text-anchor="start">Никита</text><text x="1398" y="61" font-family="Inter, Arial, sans-serif" font-size="12" fill="#A8B3C7" font-weight="600" text-anchor="start">▾</text><rect x="280" y="116" width="1152" height="96" rx="16" ry="16" fill="#161F33" stroke="#25314D" stroke-width="1" /><text x="300" y="154" font-family="Inter, Arial, sans-serif" font-size="32" fill="#F3F6FC" font-weight="700" text-anchor="start">SBER</text><text x="300" y="180" font-family="Inter, Arial, sans-serif" font-size="13" fill="#7F8CA3" font-weight="400" text-anchor="start">Сбербанк · Stocks · MOEX</text><text x="880" y="154" font-family="Inter, Arial, sans-serif" font-size="30" fill="#F3F6FC" font-weight="700" text-anchor="start">324.8 ₽</text><text x="1120" y="154" font-family="Inter, Arial, sans-serif" font-size="14" fill="#18C37E" font-weight="700" text-anchor="start">+1.4% day   +3.2% week</text><text x="880" y="180" font-family="Inter, Arial, sans-serif" font-size="12" fill="#7F8CA3" font-weight="400" text-anchor="start">Source: MOEX / open market data</text><rect x="280" y="236" width="760" height="360" rx="16" ry="16" fill="#161F33" stroke="#25314D" stroke-width="1" /><text x="300" y="266" font-family="Inter, Arial, sans-serif" font-size="18" fill="#F3F6FC" font-weight="600" text-anchor="start">Price Chart</text><rect x="792" y="250" width="48" height="28" rx="999" ry="999" fill="#12192B" stroke="#25314D" stroke-width="1" /><text x="816" y="269" font-family="Inter, Arial, sans-serif" font-size="12" fill="#A8B3C7" font-weight="600" text-anchor="middle">1W</text><rect x="848" y="250" width="48" height="28" rx="999" ry="999" fill="#1D2740" stroke="#4F7CFF" stroke-width="1" /><text x="872" y="269" font-family="Inter, Arial, sans-serif" font-size="12" fill="#F3F6FC" font-weight="600" text-anchor="middle">1M</text><rect x="904" y="250" width="48" height="28" rx="999" ry="999" fill="#12192B" stroke="#25314D" stroke-width="1" /><text x="928" y="269" font-family="Inter, Arial, sans-serif" font-size="12" fill="#A8B3C7" font-weight="600" text-anchor="middle">3M</text><rect x="960" y="250" width="48" height="28" rx="999" ry="999" fill="#12192B" stroke="#25314D" stroke-width="1" /><text x="984" y="269" font-family="Inter, Arial, sans-serif" font-size="12" fill="#A8B3C7" font-weight="600" text-anchor="middle">1Y</text><line x1="300.0" y1="296" x2="300.0" y2="546" stroke="#25314D" stroke-width="1" opacity="0.35" /><line x1="420.0" y1="296" x2="420.0" y2="546" stroke="#25314D" stroke-width="1" opacity="0.35" /><line x1="540.0" y1="296" x2="540.0" y2="546" stroke="#25314D" stroke-width="1" opacity="0.35" /><line x1="660.0" y1="296" x2="660.0" y2="546" stroke="#25314D" stroke-width="1" opacity="0.35" /><line x1="780.0" y1="296" x2="780.0" y2="546" stroke="#25314D" stroke-width="1" opacity="0.35" /><line x1="900.0" y1="296" x2="900.0" y2="546" stroke="#25314D" stroke-width="1" opacity="0.35" /><line x1="1020.0" y1="296" x2="1020.0" y2="546" stroke="#25314D" stroke-width="1" opacity="0.35" /><line x1="300" y1="296.0" x2="1020" y2="296.0" stroke="#25314D" stroke-width="1" opacity="0.35" /><line x1="300" y1="358.5" x2="1020" y2="358.5" stroke="#25314D" stroke-width="1" opacity="0.35" /><line x1="300" y1="421.0" x2="1020" y2="421.0" stroke="#25314D" stroke-width="1" opacity="0.35" /><line x1="300" y1="483.5" x2="1020" y2="483.5" stroke="#25314D" stroke-width="1" opacity="0.35" /><line x1="300" y1="546.0" x2="1020" y2="546.0" stroke="#25314D" stroke-width="1" opacity="0.35" /><polygon points="300,546 300.0,546.0 331.3,533.8 362.6,539.9 393.9,515.5 425.2,503.3 456.5,509.4 487.8,472.8 519.1,478.9 550.4,460.6 581.7,436.2 613.0,442.3 644.3,418.0 675.7,430.1 707.0,405.8 738.3,381.4 769.6,375.3 800.9,363.1 832.2,369.2 863.5,350.9 894.8,332.6 926.1,338.7 957.4,314.3 988.7,296.0 1020.0,308.2 1020,546" fill="#4F7CFF" opacity="0.08" /><polyline points="300.0,546.0 331.3,533.8 362.6,539.9 393.9,515.5 425.2,503.3 456.5,509.4 487.8,472.8 519.1,478.9 550.4,460.6 581.7,436.2 613.0,442.3 644.3,418.0 675.7,430.1 707.0,405.8 738.3,381.4 769.6,375.3 800.9,363.1 832.2,369.2 863.5,350.9 894.8,332.6 926.1,338.7 957.4,314.3 988.7,296.0 1020.0,308.2" fill="none" stroke="#4F7CFF" stroke-width="2" stroke-linecap="round" stroke-linejoin="round" /><text x="300" y="574" font-family="Inter, Arial, sans-serif" font-size="12" fill="#7F8CA3" font-weight="400" text-anchor="start">O 3 215   H 3 268   L 3 180   C 3 241      Диапазон: 74%      Волатильность: умеренная</text><rect x="280" y="620" width="760" height="180" rx="16" ry="16" fill="#161F33" stroke="#25314D" stroke-width="1" /><text x="300" y="650" font-family="Inter, Arial, sans-serif" font-size="18" fill="#F3F6FC" font-weight="600" text-anchor="start">Technical Indicators</text><rect x="300" y="668" width="172" height="112" rx="14" ry="14" fill="#12192B" stroke="#25314D" stroke-width="1" /><text x="316" y="698" font-family="Inter, Arial, sans-serif" font-size="12" fill="#7F8CA3" font-weight="600" text-anchor="start">RSI</text><text x="316" y="742" font-family="Inter, Arial, sans-serif" font-size="24" fill="#F3F6FC" font-weight="700" text-anchor="start">63</text><rect x="484" y="668" width="172" height="112" rx="14" ry="14" fill="#12192B" stroke="#25314D" stroke-width="1" /><text x="500" y="698" font-family="Inter, Arial, sans-serif" font-size="12" fill="#7F8CA3" font-weight="600" text-anchor="start">Weekly return</text><text x="500" y="742" font-family="Inter, Arial, sans-serif" font-size="24" fill="#18C37E" font-weight="700" text-anchor="start">+3.2%</text><rect x="668" y="668" width="172" height="112" rx="14" ry="14" fill="#12192B" stroke="#25314D" stroke-width="1" /><text x="684" y="698" font-family="Inter, Arial, sans-serif" font-size="12" fill="#7F8CA3" font-weight="600" text-anchor="start">Volatility</text><text x="684" y="742" font-family="Inter, Arial, sans-serif" font-size="24" fill="#F3F6FC" font-weight="700" text-anchor="start">1.22</text><rect x="852" y="668" width="172" height="112" rx="14" ry="14" fill="#12192B" stroke="#25314D" stroke-width="1" /><text x="868" y="698" font-family="Inter, Arial, sans-serif" font-size="12" fill="#7F8CA3" font-weight="600" text-anchor="start">Range position</text><text x="868" y="742" font-family="Inter, Arial, sans-serif" font-size="24" fill="#F3F6FC" font-weight="700" text-anchor="start">74%</text><rect x="280" y="824" width="760" height="240" rx="16" ry="16" fill="#161F33" stroke="#25314D" stroke-width="1" /><text x="300" y="854" font-family="Inter, Arial, sans-serif" font-size="18" fill="#F3F6FC" font-weight="600" text-anchor="start">Latest Forecast</text><text x="300" y="876" font-family="Inter, Arial, sans-serif" font-size="34" fill="#18C37E" font-weight="700" text-anchor="start">Bullish</text><rect x="458" y="850" width="131" height="28" rx="999" ry="999" fill="#12192B" stroke="#25314D" stroke-width="1" /><text x="523.5" y="868.0" font-family="Inter, Arial, sans-serif" font-size="12" fill="#A8B3C7" font-weight="600" text-anchor="middle">High confidence</text><text x="300" y="912" font-family="Inter, Arial, sans-serif" font-size="12" fill="#7F8CA3" font-weight="400" text-anchor="start">Generated at 10:24 · Short-term reaction signal</text><text x="300" y="946" font-family="Inter, Arial, sans-serif" font-size="15" fill="#A8B3C7" font-weight="400" text-anchor="start"><tspan x="300" dy="0">Positive momentum is supported by a stable market regime, constructive news flow</tspan><tspan x="300" dy="20.25">and moderate macro pressure in the current window.</tspan></text><rect x="300" y="996" width="136" height="42" rx="12" ry="12" fill="#12192B" stroke="#25314D" stroke-width="1" /><text x="312" y="1021" font-family="Inter, Arial, sans-serif" font-size="12" fill="#7F8CA3" font-weight="600" text-anchor="start">News</text><text x="424" y="1021" font-family="Inter, Arial, sans-serif" font-size="12" fill="#4F7CFF" font-weight="700" text-anchor="end">+0.34</text><rect x="448" y="996" width="136" height="42" rx="12" ry="12" fill="#12192B" stroke="#25314D" stroke-width="1" /><text x="460" y="1021" font-family="Inter, Arial, sans-serif" font-size="12" fill="#7F8CA3" font-weight="600" text-anchor="start">Technicals</text><text x="572" y="1021" font-family="Inter, Arial, sans-serif" font-size="12" fill="#18C37E" font-weight="700" text-anchor="end">+0.28</text><rect x="596" y="996" width="136" height="42" rx="12" ry="12" fill="#12192B" stroke="#25314D" stroke-width="1" /><text x="608" y="1021" font-family="Inter, Arial, sans-serif" font-size="12" fill="#7F8CA3" font-weight="600" text-anchor="start">Macro</text><text x="720" y="1021" font-family="Inter, Arial, sans-serif" font-size="12" fill="#37B6FF" font-weight="700" text-anchor="end">+0.11</text><rect x="744" y="996" width="136" height="42" rx="12" ry="12" fill="#12192B" stroke="#25314D" stroke-width="1" /><text x="756" y="1021" font-family="Inter, Arial, sans-serif" font-size="12" fill="#7F8CA3" font-weight="600" text-anchor="start">Commodity</text><text x="868" y="1021" font-family="Inter, Arial, sans-serif" font-size="12" fill="#8B7CFF" font-weight="700" text-anchor="end">+0.04</text><rect x="892" y="996" width="136" height="42" rx="12" ry="12" fill="#12192B" stroke="#25314D" stroke-width="1" /><text x="904" y="1021" font-family="Inter, Arial, sans-serif" font-size="12" fill="#7F8CA3" font-weight="600" text-anchor="start">Regime</text><text x="1016" y="1021" font-family="Inter, Arial, sans-serif" font-size="12" fill="#F5B942" font-weight="700" text-anchor="end">+0.17</text><rect x="280" y="1088" width="760" height="280" rx="16" ry="16" fill="#161F33" stroke="#25314D" stroke-width="1" /><text x="300" y="1118" font-family="Inter, Arial, sans-serif" font-size="18" fill="#F3F6FC" font-weight="600" text-anchor="start">Related News &amp; Events</text><text x="300" y="1138" font-family="Inter, Arial, sans-serif" font-size="12" fill="#7F8CA3" font-weight="500" text-anchor="start">Timeline of relevant linked events</text><rect x="300" y="1138" width="720" height="104" rx="16" ry="16" fill="#161F33" stroke="#25314D" stroke-width="1" /><text x="320" y="1166" font-family="Inter, Arial, sans-serif" font-size="12" fill="#7F8CA3" font-weight="500" text-anchor="start">10:24</text><rect x="392" y="1152" width="56" height="24" rx="999" ry="999" fill="#37B6FF" /><text x="420.0" y="1168.0" font-family="Inter, Arial, sans-serif" font-size="11" fill="#FFFFFF" font-weight="600" text-anchor="middle">Macro</text><rect x="922" y="1152" width="67" height="24" rx="999" ry="999" fill="#2A1820" stroke="#F04D5E" stroke-width="1" /><text x="955.5" y="1168.0" font-family="Inter, Arial, sans-serif" font-size="11" fill="#F04D5E" font-weight="600" text-anchor="middle">Высокое</text><text x="320" y="1196" font-family="Inter, Arial, sans-serif" font-size="16" fill="#F3F6FC" font-weight="600" text-anchor="start">Улучшение внешнего фона поддержало банковский сектор</text><text x="320" y="1222" font-family="Inter, Arial, sans-serif" font-size="13" fill="#A8B3C7" font-weight="400" text-anchor="start">Позитивный макроимпульс поддержал спрос на бумаги с высокой чувствительностью к риску.</text><rect x="320" y="1212" width="56" height="22" rx="999" ry="999" fill="#12192B" stroke="#25314D" stroke-width="1" /><text x="348.0" y="1227.0" font-family="Inter, Arial, sans-serif" font-size="11" fill="#A8B3C7" font-weight="600" text-anchor="middle">SBER</text><rect x="382" y="1212" width="56" height="22" rx="999" ry="999" fill="#12192B" stroke="#25314D" stroke-width="1" /><text x="410.0" y="1227.0" font-family="Inter, Arial, sans-serif" font-size="11" fill="#A8B3C7" font-weight="600" text-anchor="middle">IMOEX</text><rect x="300" y="1254" width="720" height="96" rx="16" ry="16" fill="#161F33" stroke="#25314D" stroke-width="1" /><text x="320" y="1282" font-family="Inter, Arial, sans-serif" font-size="12" fill="#7F8CA3" font-weight="500" text-anchor="start">08:48</text><rect x="392" y="1268" width="81" height="24" rx="999" ry="999" fill="#4F7CFF" /><text x="432.5" y="1284.0" font-family="Inter, Arial, sans-serif" font-size="11" fill="#FFFFFF" font-weight="600" text-anchor="middle">Corporate</text><rect x="922" y="1268" width="67" height="24" rx="999" ry="999" fill="#2A2412" stroke="#F5B942" stroke-width="1" /><text x="955.5" y="1284.0" font-family="Inter, Arial, sans-serif" font-size="11" fill="#F5B942" font-weight="600" text-anchor="middle">Среднее</text><text x="320" y="1312" font-family="Inter, Arial, sans-serif" font-size="16" fill="#F3F6FC" font-weight="600" text-anchor="start">Компания раскрыла операционные показатели выше ожиданий</text><text x="320" y="1338" font-family="Inter, Arial, sans-serif" font-size="13" fill="#A8B3C7" font-weight="400" text-anchor="start">Краткая фиксация эффекта в прогнозной модели и истории сигналов.</text><rect x="320" y="1320" width="56" height="22" rx="999" ry="999" fill="#12192B" stroke="#25314D" stroke-width="1" /><text x="348.0" y="1335.0" font-family="Inter, Arial, sans-serif" font-size="11" fill="#A8B3C7" font-weight="600" text-anchor="middle">SBER</text><rect x="1064" y="236" width="368" height="160" rx="16" ry="16" fill="#161F33" stroke="#25314D" stroke-width="1" /><text x="1084" y="266" font-family="Inter, Arial, sans-serif" font-size="18" fill="#F3F6FC" font-weight="600" text-anchor="start">Regime influence</text><text x="1084" y="284" font-family="Inter, Arial, sans-serif" font-size="12" fill="#7F8CA3" font-weight="400" text-anchor="start">Current score</text><text x="1084" y="324" font-family="Inter, Arial, sans-serif" font-size="30" fill="#F3F6FC" font-weight="700" text-anchor="start">67 / 100</text><text x="1084" y="350" font-family="Inter, Arial, sans-serif" font-size="13" fill="#A8B3C7" font-weight="400" text-anchor="start">Asset sensitivity: medium-high</text><rect x="1064" y="420" width="368" height="180" rx="16" ry="16" fill="#161F33" stroke="#25314D" stroke-width="1" /><text x="1084" y="450" font-family="Inter, Arial, sans-serif" font-size="18" fill="#F3F6FC" font-weight="600" text-anchor="start">Key Stats</text><text x="1084" y="462" font-family="Inter, Arial, sans-serif" font-size="12" fill="#7F8CA3" font-weight="600" text-anchor="start">Sector</text><text x="1412" y="462" font-family="Inter, Arial, sans-serif" font-size="13" fill="#F3F6FC" font-weight="600" text-anchor="end">Financials</text><text x="1084" y="494" font-family="Inter, Arial, sans-serif" font-size="12" fill="#7F8CA3" font-weight="600" text-anchor="start">Source</text><text x="1412" y="494" font-family="Inter, Arial, sans-serif" font-size="13" fill="#F3F6FC" font-weight="600" text-anchor="end">MOEX</text><text x="1084" y="526" font-family="Inter, Arial, sans-serif" font-size="12" fill="#7F8CA3" font-weight="600" text-anchor="start">Last update</text><text x="1412" y="526" font-family="Inter, Arial, sans-serif" font-size="13" fill="#F3F6FC" font-weight="600" text-anchor="end">10:24</text><text x="1084" y="558" font-family="Inter, Arial, sans-serif" font-size="12" fill="#7F8CA3" font-weight="600" text-anchor="start">Coverage</text><text x="1412" y="558" font-family="Inter, Arial, sans-serif" font-size="13" fill="#F3F6FC" font-weight="600" text-anchor="end">Price · News · Macro</text><rect x="1064" y="624" width="368" height="220" rx="16" ry="16" fill="#161F33" stroke="#25314D" stroke-width="1" /><text x="1084" y="654" font-family="Inter, Arial, sans-serif" font-size="18" fill="#F3F6FC" font-weight="600" text-anchor="start">Forecast History</text><rect x="1084" y="668" width="328" height="34" rx="10" ry="10" fill="#12192B" stroke="#25314D" stroke-width="1" /><text x="1100" y="690" font-family="Inter, Arial, sans-serif" font-size="12" fill="#7F8CA3" font-weight="400" text-anchor="start">11 Apr</text><text x="1198" y="690" font-family="Inter, Arial, sans-serif" font-size="12" fill="#18C37E" font-weight="700" text-anchor="start">Bullish</text><text x="1394" y="690" font-family="Inter, Arial, sans-serif" font-size="12" fill="#A8B3C7" font-weight="400" text-anchor="end">High</text><rect x="1084" y="710" width="328" height="34" rx="10" ry="10" fill="#12192B" stroke="#25314D" stroke-width="1" /><text x="1100" y="732" font-family="Inter, Arial, sans-serif" font-size="12" fill="#7F8CA3" font-weight="400" text-anchor="start">10 Apr</text><text x="1198" y="732" font-family="Inter, Arial, sans-serif" font-size="12" fill="#A8B3C7" font-weight="700" text-anchor="start">Neutral</text><text x="1394" y="732" font-family="Inter, Arial, sans-serif" font-size="12" fill="#A8B3C7" font-weight="400" text-anchor="end">Medium</text><rect x="1084" y="752" width="328" height="34" rx="10" ry="10" fill="#12192B" stroke="#25314D" stroke-width="1" /><text x="1100" y="774" font-family="Inter, Arial, sans-serif" font-size="12" fill="#7F8CA3" font-weight="400" text-anchor="start">09 Apr</text><text x="1198" y="774" font-family="Inter, Arial, sans-serif" font-size="12" fill="#F04D5E" font-weight="700" text-anchor="start">Bearish</text><text x="1394" y="774" font-family="Inter, Arial, sans-serif" font-size="12" fill="#A8B3C7" font-weight="400" text-anchor="end">Low</text><rect x="1084" y="794" width="328" height="34" rx="10" ry="10" fill="#12192B" stroke="#25314D" stroke-width="1" /><text x="1100" y="816" font-family="Inter, Arial, sans-serif" font-size="12" fill="#7F8CA3" font-weight="400" text-anchor="start">08 Apr</text><text x="1198" y="816" font-family="Inter, Arial, sans-serif" font-size="12" fill="#18C37E" font-weight="700" text-anchor="start">Bullish</text><text x="1394" y="816" font-family="Inter, Arial, sans-serif" font-size="12" fill="#A8B3C7" font-weight="400" text-anchor="end">Medium</text><rect x="1064" y="868" width="368" height="180" rx="16" ry="16" fill="#161F33" stroke="#25314D" stroke-width="1" /><text x="1084" y="898" font-family="Inter, Arial, sans-serif" font-size="18" fill="#F3F6FC" font-weight="600" text-anchor="start">What to monitor</text><circle cx="1086" cy="908" r="4" fill="#4F7CFF" /><text x="1100" y="912" font-family="Inter, Arial, sans-serif" font-size="13" fill="#A8B3C7" font-weight="400" text-anchor="start">Следующее макро-событие</text><circle cx="1086" cy="938" r="4" fill="#4F7CFF" /><text x="1100" y="942" font-family="Inter, Arial, sans-serif" font-size="13" fill="#A8B3C7" font-weight="400" text-anchor="start">Поведение нефтяного блока</text><circle cx="1086" cy="968" r="4" fill="#4F7CFF" /><text x="1100" y="972" font-family="Inter, Arial, sans-serif" font-size="13" fill="#A8B3C7" font-weight="400" text-anchor="start">Обновление новостного стресса</text><circle cx="1086" cy="998" r="4" fill="#4F7CFF" /><text x="1100" y="1002" font-family="Inter, Arial, sans-serif" font-size="13" fill="#A8B3C7" font-weight="400" text-anchor="start">Переоценка режима риска</text>
</svg>