<svg xmlns="http://www.w3.org/2000/svg" width="1440" height="1200" viewBox="0 0 1440 1200" fill="none">
<style>
.small { font-family: Inter, Arial, sans-serif; font-size: 12px; fill: #7F8CA3; }
</style>
<rect x="0" y="0" width="1440" height="1200" fill="#0B1020" /><rect x="0" y="0" width="248" height="1200" fill="#09101D" /><text x="24" y="46" font-family="Inter, Arial, sans-serif" font-size="24" fill="#F3F6FC" font-weight="700" text-anchor="start">MRAP</text><text x="24" y="66" font-family="Inter, Arial, sans-serif" font-size="11" fill="#7F8CA3" font-weight="500" text-anchor="start">Market Reaction Analytics Platform</text><rect x="16" y="112" width="216" height="44" rx="12" ry="12" fill="#1D2740" stroke="#4F7CFF" stroke-width="1" /><circle cx="34" cy="134" r="6" fill="#4F7CFF" /><text x="48" y="140" font-family="Inter, Arial, sans-serif" font-size="14" fill="#F3F6FC" font-weight="600" text-anchor="start">Панель обзора</text><rect x="16" y="164" width="216" height="44" rx="12" ry="12" fill="none" /><circle cx="34" cy="186" r="6" fill="#7F8CA3" /><text x="48" y="192" font-family="Inter, Arial, sans-serif" font-size="14" fill="#A8B3C7" font-weight="500" text-anchor="start">Активы</text><rect x="16" y="216" width="216" height="44" rx="12" ry="12" fill="none" /><circle cx="34" cy="238" r="6" fill="#7F8CA3" /><text x="48" y="244" font-family="Inter, Arial, sans-serif" font-size="14" fill="#A8B3C7" font-weight="500" text-anchor="start">Новости и события</text><rect x="16" y="268" width="216" height="44" rx="12" ry="12" fill="none" /><circle cx="34" cy="290" r="6" fill="#7F8CA3" /><text x="48" y="296" font-family="Inter, Arial, sans-serif" font-size="14" fill="#A8B3C7" font-weight="500" text-anchor="start">Прогнозы</text><rect x="16" y="320" width="216" height="44" rx="12" ry="12" fill="none" /><circle cx="34" cy="342" r="6" fill="#7F8CA3" /><text x="48" y="348" font-family="Inter, Arial, sans-serif" font-size="14" fill="#A8B3C7" font-weight="500" text-anchor="start">История</text><rect x="16" y="372" width="216" height="44" rx="12" ry="12" fill="none" /><circle cx="34" cy="394" r="6" fill="#7F8CA3" /><text x="48" y="400" font-family="Inter, Arial, sans-serif" font-size="14" fill="#A8B3C7" font-weight="500" text-anchor="start">Настройки</text><rect x="16" y="1112" width="216" height="56" rx="14" ry="14" fill="#161F33" stroke="#25314D" stroke-width="1" /><circle cx="42" cy="1140" r="14" fill="#4F7CFF" opacity="0.9" /><text x="64" y="1144" font-family="Inter, Arial, sans-serif" font-size="13" fill="#F3F6FC" font-weight="600" text-anchor="start">Никита Стоянов</text><text x="64" y="1162" font-family="Inter, Arial, sans-serif" font-size="12" fill="#7F8CA3" font-weight="400" text-anchor="start">Выход</text><rect x="280" y="20" width="1152" height="72" fill="none" /><text x="280" y="64" font-family="Inter, Arial, sans-serif" font-size="24" fill="#F3F6FC" font-weight="700" text-anchor="start">Панель обзора</text><rect x="736" y="34" width="320" height="44" rx="12" ry="12" fill="#12192B" stroke="#25314D" stroke-width="1" /><circle cx="756" cy="56.0" r="7" fill="none" stroke="#7F8CA3" stroke-width="1.5" /><line x1="761" y1="61.0" x2="767" y2="67.0" stroke="#7F8CA3" stroke-width="1.5" /><text x="776" y="61.0" font-family="Inter, Arial, sans-serif" font-size="14" fill="#7F8CA3" font-weight="400" text-anchor="start">Поиск по активам, новостям, прогнозам</text><rect x="1080" y="42" width="139" height="28" rx="999" ry="999" fill="#132B22" /><text x="1149.5" y="60.0" font-family="Inter, Arial, sans-serif" font-size="12" fill="#18C37E" font-weight="600" text-anchor="middle">Данные обновлены</text><rect x="1224" y="34" width="44" height="44" rx="12" ry="12" fill="#1A243A" stroke="#2B3A5B" stroke-width="1" /><text x="1246" y="62" font-family="Inter, Arial, sans-serif" font-size="18" fill="#A8B3C7" font-weight="600" text-anchor="middle">↻</text><rect x="1272" y="34" width="160" height="44" rx="12" ry="12" fill="#161F33" stroke="#25314D" stroke-width="1" /><circle cx="1298" cy="56" r="10" fill="#4F7CFF" /><text x="1318" y="61" font-family="Inter, Arial, sans-serif" font-size="13" fill="#F3F6FC" font-weight="600" text-anchor="start">Никита</text><text x="1398" y="61" font-family="Inter, Arial, sans-serif" font-size="12" fill="#A8B3C7" font-weight="600" text-anchor="start">▾</text><rect x="280" y="116" width="564" height="220" rx="16" ry="16" fill="#161F33" stroke="#25314D" stroke-width="1" /><text x="300" y="146" font-family="Inter, Arial, sans-serif" font-size="18" fill="#F3F6FC" font-weight="600" text-anchor="start">Market Regime</text><text x="300" y="198" font-family="Inter, Arial, sans-serif" font-size="46" fill="#F3F6FC" font-weight="700" text-anchor="start">67 / 100</text><rect x="530" y="168" width="131" height="28" rx="999" ry="999" fill="#2A2412" stroke="#F5B942" stroke-width="1" /><text x="595.5" y="186.0" font-family="Inter, Arial, sans-serif" font-size="12" fill="#F5B942" font-weight="600" text-anchor="middle">Elevated stress</text><rect x="300" y="238" width="524" height="16" rx="999" ry="999" fill="#12192B" stroke="#25314D" stroke-width="1" /><rect x="300" y="238" width="346" height="16" rx="999" ry="999" fill="#F5B942" /><rect x="300" y="274" width="118" height="44" rx="12" ry="12" fill="#12192B" stroke="#25314D" stroke-width="1" /><text x="312" y="294" font-family="Inter, Arial, sans-serif" font-size="11" fill="#7F8CA3" font-weight="600" text-anchor="start">Volatility</text><text x="406" y="294" font-family="Inter, Arial, sans-serif" font-size="12" fill="#F5B942" font-weight="700" text-anchor="end">0.68</text><rect x="432" y="274" width="118" height="44" rx="12" ry="12" fill="#12192B" stroke="#25314D" stroke-width="1" /><text x="444" y="294" font-family="Inter, Arial, sans-serif" font-size="11" fill="#7F8CA3" font-weight="600" text-anchor="start">Breadth</text><text x="538" y="294" font-family="Inter, Arial, sans-serif" font-size="12" fill="#4F7CFF" font-weight="700" text-anchor="end">0.54</text><rect x="564" y="274" width="118" height="44" rx="12" ry="12" fill="#12192B" stroke="#25314D" stroke-width="1" /><text x="576" y="294" font-family="Inter, Arial, sans-serif" font-size="11" fill="#7F8CA3" font-weight="600" text-anchor="start">News stress</text><text x="670" y="294" font-family="Inter, Arial, sans-serif" font-size="12" fill="#F04D5E" font-weight="700" text-anchor="end">0.72</text><rect x="696" y="274" width="118" height="44" rx="12" ry="12" fill="#12192B" stroke="#25314D" stroke-width="1" /><text x="708" y="294" font-family="Inter, Arial, sans-serif" font-size="11" fill="#7F8CA3" font-weight="600" text-anchor="start">Commodity</text><text x="802" y="294" font-family="Inter, Arial, sans-serif" font-size="12" fill="#8B7CFF" font-weight="700" text-anchor="end">0.41</text><rect x="868" y="116" width="268" height="220" rx="16" ry="16" fill="#161F33" stroke="#25314D" stroke-width="1" /><text x="888" y="146" font-family="Inter, Arial, sans-serif" font-size="18" fill="#F3F6FC" font-weight="600" text-anchor="start">Dashboard Summary</text><text x="888" y="160" font-family="Inter, Arial, sans-serif" font-size="12" fill="#7F8CA3" font-weight="600" text-anchor="start">Forecasts</text><text x="1110" y="160" font-family="Inter, Arial, sans-serif" font-size="16" fill="#F3F6FC" font-weight="700" text-anchor="end">24</text><text x="888" y="196" font-family="Inter, Arial, sans-serif" font-size="12" fill="#7F8CA3" font-weight="600" text-anchor="start">Assets</text><text x="1110" y="196" font-family="Inter, Arial, sans-serif" font-size="16" fill="#F3F6FC" font-weight="700" text-anchor="end">18</text><text x="888" y="232" font-family="Inter, Arial, sans-serif" font-size="12" fill="#7F8CA3" font-weight="600" text-anchor="start">Events</text><text x="1110" y="232" font-family="Inter, Arial, sans-serif" font-size="16" fill="#F3F6FC" font-weight="700" text-anchor="end">31</text><text x="888" y="268" font-family="Inter, Arial, sans-serif" font-size="12" fill="#7F8CA3" font-weight="600" text-anchor="start">Updated</text><text x="1110" y="268" font-family="Inter, Arial, sans-serif" font-size="16" fill="#F3F6FC" font-weight="700" text-anchor="end">12m ago</text><rect x="1160" y="116" width="268" height="220" rx="16" ry="16" fill="#161F33" stroke="#25314D" stroke-width="1" /><text x="1180" y="146" font-family="Inter, Arial, sans-serif" font-size="18" fill="#F3F6FC" font-weight="600" text-anchor="start">Quick Actions</text><rect x="1180" y="160" width="228" height="44" rx="12" ry="12" fill="#4F7CFF" /><text x="1294.0" y="187.0" font-family="Inter, Arial, sans-serif" font-size="14" fill="#FFFFFF" font-weight="600" text-anchor="middle">Generate forecast</text><rect x="1180" y="216" width="228" height="44" rx="12" ry="12" fill="#1A243A" stroke="#2B3A5B" stroke-width="1" /><text x="1294.0" y="243.0" font-family="Inter, Arial, sans-serif" font-size="14" fill="#DCE6F7" font-weight="600" text-anchor="middle">View assets</text><rect x="1180" y="272" width="228" height="44" rx="12" ry="12" fill="#1A243A" stroke="#2B3A5B" stroke-width="1" /><text x="1294.0" y="299.0" font-family="Inter, Arial, sans-serif" font-size="14" fill="#DCE6F7" font-weight="600" text-anchor="middle">Open news feed</text><rect x="280" y="360" width="564" height="340" rx="16" ry="16" fill="#161F33" stroke="#25314D" stroke-width="1" /><text x="300" y="390" font-family="Inter, Arial, sans-serif" font-size="18" fill="#F3F6FC" font-weight="600" text-anchor="start">Assets in Focus</text><text x="300" y="410" font-family="Inter, Arial, sans-serif" font-size="12" fill="#7F8CA3" font-weight="500" text-anchor="start">Tracked instruments requiring attention</text><text x="824" y="390" font-family="Inter, Arial, sans-serif" font-size="12" fill="#A8B3C7" font-weight="600" text-anchor="end">View all</text><rect x="300" y="424" width="244" height="120" rx="14" ry="14" fill="#12192B" stroke="#25314D" stroke-width="1" /><text x="316" y="452" font-family="Inter, Arial, sans-serif" font-size="16" fill="#F3F6FC" font-weight="700" text-anchor="start">IMOEX</text><text x="528" y="452" font-family="Inter, Arial, sans-serif" font-size="13" fill="#18C37E" font-weight="700" text-anchor="end">+1.8%</text><text x="316" y="470" font-family="Inter, Arial, sans-serif" font-size="12" fill="#7F8CA3" font-weight="500" text-anchor="start">Индекс Мосбиржи</text><text x="316" y="500" font-family="Inter, Arial, sans-serif" font-size="24" fill="#F3F6FC" font-weight="700" text-anchor="start">3 215</text><polygon points="316,530 316.0,524.0 330.1,530.0 344.3,510.9 358.4,508.0 372.5,521.2 386.7,519.6 400.8,522.5 414.9,525.7 429.1,516.2 443.2,524.8 457.3,510.2 471.5,514.1 485.6,520.0 499.7,518.1 513.9,519.4 528.0,522.5 528,530" fill="#18C37E" opacity="0.08" /><polyline points="316.0,524.0 330.1,530.0 344.3,510.9 358.4,508.0 372.5,521.2 386.7,519.6 400.8,522.5 414.9,525.7 429.1,516.2 443.2,524.8 457.3,510.2 471.5,514.1 485.6,520.0 499.7,518.1 513.9,519.4 528.0,522.5" fill="none" stroke="#18C37E" stroke-width="2" stroke-linecap="round" stroke-linejoin="round" /><rect x="316" y="510" width="67" height="24" rx="999" ry="999" fill="#1D2740" stroke="#18C37E" stroke-width="1" /><text x="349.5" y="526.0" font-family="Inter, Arial, sans-serif" font-size="11" fill="#18C37E" font-weight="600" text-anchor="middle">Bullish</text><rect x="391" y="510" width="56" height="24" rx="999" ry="999" fill="#12192B" stroke="#25314D" stroke-width="1" /><text x="419.0" y="526.0" font-family="Inter, Arial, sans-serif" font-size="11" fill="#A8B3C7" font-weight="600" text-anchor="middle">High</text><rect x="580" y="424" width="244" height="120" rx="14" ry="14" fill="#12192B" stroke="#25314D" stroke-width="1" /><text x="596" y="452" font-family="Inter, Arial, sans-serif" font-size="16" fill="#F3F6FC" font-weight="700" text-anchor="start">SBER</text><text x="808" y="452" font-family="Inter, Arial, sans-serif" font-size="13" fill="#18C37E" font-weight="700" text-anchor="end">+2.1%</text><text x="596" y="470" font-family="Inter, Arial, sans-serif" font-size="12" fill="#7F8CA3" font-weight="500" text-anchor="start">Сбербанк</text><text x="596" y="500" font-family="Inter, Arial, sans-serif" font-size="24" fill="#F3F6FC" font-weight="700" text-anchor="start">324.8</text><polygon points="596,530 596.0,519.2 610.1,530.0 624.3,523.3 638.4,518.2 652.5,529.3 666.7,529.0 680.8,525.2 694.9,522.5 709.1,525.8 723.2,512.8 737.3,518.0 751.5,516.7 765.6,512.0 779.7,527.1 793.9,508.0 808.0,518.8 808,530" fill="#18C37E" opacity="0.08" /><polyline points="596.0,519.2 610.1,530.0 624.3,523.3 638.4,518.2 652.5,529.3 666.7,529.0 680.8,525.2 694.9,522.5 709.1,525.8 723.2,512.8 737.3,518.0 751.5,516.7 765.6,512.0 779.7,527.1 793.9,508.0 808.0,518.8" fill="none" stroke="#18C37E" stroke-width="2" stroke-linecap="round" stroke-linejoin="round" /><rect x="596" y="510" width="67" height="24" rx="999" ry="999" fill="#1D2740" stroke="#18C37E" stroke-width="1" /><text x="629.5" y="526.0" font-family="Inter, Arial, sans-serif" font-size="11" fill="#18C37E" font-weight="600" text-anchor="middle">Bullish</text><rect x="671" y="510" width="56" height="24" rx="999" ry="999" fill="#12192B" stroke="#25314D" stroke-width="1" /><text x="699.0" y="526.0" font-family="Inter, Arial, sans-serif" font-size="11" fill="#A8B3C7" font-weight="600" text-anchor="middle">High</text><rect x="300" y="564" width="244" height="120" rx="14" ry="14" fill="#12192B" stroke="#25314D" stroke-width="1" /><text x="316" y="592" font-family="Inter, Arial, sans-serif" font-size="16" fill="#F3F6FC" font-weight="700" text-anchor="start">LKOH</text><text x="528" y="592" font-family="Inter, Arial, sans-serif" font-size="13" fill="#18C37E" font-weight="700" text-anchor="end">+0.6%</text><text x="316" y="610" font-family="Inter, Arial, sans-serif" font-size="12" fill="#7F8CA3" font-weight="500" text-anchor="start">Лукойл</text><text x="316" y="640" font-family="Inter, Arial, sans-serif" font-size="24" fill="#F3F6FC" font-weight="700" text-anchor="start">7 142</text><polygon points="316,670 316.0,661.8 330.1,658.1 344.3,661.7 358.4,661.7 372.5,653.6 386.7,648.0 400.8,654.2 414.9,655.7 429.1,661.5 443.2,652.4 457.3,658.1 471.5,670.0 485.6,648.2 499.7,656.9 513.9,660.9 528.0,650.0 528,670" fill="#4F7CFF" opacity="0.08" /><polyline points="316.0,661.8 330.1,658.1 344.3,661.7 358.4,661.7 372.5,653.6 386.7,648.0 400.8,654.2 414.9,655.7 429.1,661.5 443.2,652.4 457.3,658.1 471.5,670.0 485.6,648.2 499.7,656.9 513.9,660.9 528.0,650.0" fill="none" stroke="#4F7CFF" stroke-width="2" stroke-linecap="round" stroke-linejoin="round" /><rect x="316" y="650" width="67" height="24" rx="999" ry="999" fill="#1D2740" stroke="#25314D" stroke-width="1" /><text x="349.5" y="666.0" font-family="Inter, Arial, sans-serif" font-size="11" fill="#A8B3C7" font-weight="600" text-anchor="middle">Neutral</text><rect x="391" y="650" width="60" height="24" rx="999" ry="999" fill="#12192B" stroke="#25314D" stroke-width="1" /><text x="421.0" y="666.0" font-family="Inter, Arial, sans-serif" font-size="11" fill="#A8B3C7" font-weight="600" text-anchor="middle">Medium</text><rect x="580" y="564" width="244" height="120" rx="14" ry="14" fill="#12192B" stroke="#25314D" stroke-width="1" /><text x="596" y="592" font-family="Inter, Arial, sans-serif" font-size="16" fill="#F3F6FC" font-weight="700" text-anchor="start">BRENT</text><text x="808" y="592" font-family="Inter, Arial, sans-serif" font-size="13" fill="#F04D5E" font-weight="700" text-anchor="end">-1.2%</text><text x="596" y="610" font-family="Inter, Arial, sans-serif" font-size="12" fill="#7F8CA3" font-weight="500" text-anchor="start">Нефть Brent</text><text x="596" y="640" font-family="Inter, Arial, sans-serif" font-size="24" fill="#F3F6FC" font-weight="700" text-anchor="start">84.2</text><polygon points="596,670 596.0,659.8 610.1,664.4 624.3,648.0 638.4,653.0 652.5,649.4 666.7,648.7 680.8,659.7 694.9,664.8 709.1,654.8 723.2,670.0 737.3,661.1 751.5,669.3 765.6,664.8 779.7,665.1 793.9,660.4 808.0,663.5 808,670" fill="#F04D5E" opacity="0.08" /><polyline points="596.0,659.8 610.1,664.4 624.3,648.0 638.4,653.0 652.5,649.4 666.7,648.7 680.8,659.7 694.9,664.8 709.1,654.8 723.2,670.0 737.3,661.1 751.5,669.3 765.6,664.8 779.7,665.1 793.9,660.4 808.0,663.5" fill="none" stroke="#F04D5E" stroke-width="2" stroke-linecap="round" stroke-linejoin="round" /><rect x="596" y="650" width="67" height="24" rx="999" ry="999" fill="#1D2740" stroke="#F04D5E" stroke-width="1" /><text x="629.5" y="666.0" font-family="Inter, Arial, sans-serif" font-size="11" fill="#F04D5E" font-weight="600" text-anchor="middle">Bearish</text><rect x="671" y="650" width="60" height="24" rx="999" ry="999" fill="#12192B" stroke="#25314D" stroke-width="1" /><text x="701.0" y="666.0" font-family="Inter, Arial, sans-serif" font-size="11" fill="#A8B3C7" font-weight="600" text-anchor="middle">Medium</text><rect x="868" y="360" width="564" height="340" rx="16" ry="16" fill="#161F33" stroke="#25314D" stroke-width="1" /><text x="888" y="390" font-family="Inter, Arial, sans-serif" font-size="18" fill="#F3F6FC" font-weight="600" text-anchor="start">Latest Forecasts</text><text x="888" y="410" font-family="Inter, Arial, sans-serif" font-size="12" fill="#7F8CA3" font-weight="500" text-anchor="start">Recent generated market reaction signals</text><text x="1412" y="390" font-family="Inter, Arial, sans-serif" font-size="12" fill="#A8B3C7" font-weight="600" text-anchor="end">Open all</text><rect x="888" y="414" width="524" height="40" rx="12" ry="12" fill="#12192B" stroke="#25314D" stroke-width="1" /><text x="908" y="440.0" font-family="Inter, Arial, sans-serif" font-size="12" fill="#7F8CA3" font-weight="600" text-anchor="start">Asset</text><text x="1058" y="440.0" font-family="Inter, Arial, sans-serif" font-size="12" fill="#7F8CA3" font-weight="600" text-anchor="start">Direction</text><text x="1188" y="440.0" font-family="Inter, Arial, sans-serif" font-size="12" fill="#7F8CA3" font-weight="600" text-anchor="start">Conf.</text><text x="1345.0" y="440.0" font-family="Inter, Arial, sans-serif" font-size="12" fill="#7F8CA3" font-weight="600" text-anchor="middle">Generated</text><rect x="888" y="462" width="524" height="54" rx="12" ry="12" fill="#12192B" stroke="#25314D" stroke-width="1" /><text x="908" y="495" font-family="Inter, Arial, sans-serif" font-size="13" fill="#F3F6FC" font-weight="600" text-anchor="start">SBER</text><text x="1038" y="495" font-family="Inter, Arial, sans-serif" font-size="13" fill="#18C37E" font-weight="700" text-anchor="start">Bullish</text><text x="1182" y="495" font-family="Inter, Arial, sans-serif" font-size="13" fill="#A8B3C7" font-weight="500" text-anchor="start">High</text><text x="1388" y="495" font-family="Inter, Arial, sans-serif" font-size="12" fill="#7F8CA3" font-weight="500" text-anchor="end">10:24</text><rect x="888" y="524" width="524" height="54" rx="12" ry="12" fill="#12192B" stroke="#25314D" stroke-width="1" /><text x="908" y="557" font-family="Inter, Arial, sans-serif" font-size="13" fill="#F3F6FC" font-weight="600" text-anchor="start">BRENT</text><text x="1038" y="557" font-family="Inter, Arial, sans-serif" font-size="13" fill="#F04D5E" font-weight="700" text-anchor="start">Bearish</text><text x="1182" y="557" font-family="Inter, Arial, sans-serif" font-size="13" fill="#A8B3C7" font-weight="500" text-anchor="start">Medium</text><text x="1388" y="557" font-family="Inter, Arial, sans-serif" font-size="12" fill="#7F8CA3" font-weight="500" text-anchor="end">09:52</text><rect x="888" y="586" width="524" height="54" rx="12" ry="12" fill="#12192B" stroke="#25314D" stroke-width="1" /><text x="908" y="619" font-family="Inter, Arial, sans-serif" font-size="13" fill="#F3F6FC" font-weight="600" text-anchor="start">IMOEX</text><text x="1038" y="619" font-family="Inter, Arial, sans-serif" font-size="13" fill="#18C37E" font-weight="700" text-anchor="start">Bullish</text><text x="1182" y="619" font-family="Inter, Arial, sans-serif" font-size="13" fill="#A8B3C7" font-weight="500" text-anchor="start">High</text><text x="1388" y="619" font-family="Inter, Arial, sans-serif" font-size="12" fill="#7F8CA3" font-weight="500" text-anchor="end">09:31</text><rect x="888" y="648" width="524" height="54" rx="12" ry="12" fill="#12192B" stroke="#25314D" stroke-width="1" /><text x="908" y="681" font-family="Inter, Arial, sans-serif" font-size="13" fill="#F3F6FC" font-weight="600" text-anchor="start">YDEX</text><text x="1038" y="681" font-family="Inter, Arial, sans-serif" font-size="13" fill="#A8B3C7" font-weight="700" text-anchor="start">Neutral</text><text x="1182" y="681" font-family="Inter, Arial, sans-serif" font-size="13" fill="#A8B3C7" font-weight="500" text-anchor="start">Low</text><text x="1388" y="681" font-family="Inter, Arial, sans-serif" font-size="12" fill="#7F8CA3" font-weight="500" text-anchor="end">08:40</text><rect x="280" y="724" width="760" height="320" rx="16" ry="16" fill="#161F33" stroke="#25314D" stroke-width="1" /><text x="300" y="754" font-family="Inter, Arial, sans-serif" font-size="18" fill="#F3F6FC" font-weight="600" text-anchor="start">News &amp; Events Feed</text><text x="300" y="774" font-family="Inter, Arial, sans-serif" font-size="12" fill="#7F8CA3" font-weight="500" text-anchor="start">Market-moving events and linked assets</text><text x="1020" y="754" font-family="Inter, Arial, sans-serif" font-size="12" fill="#A8B3C7" font-weight="600" text-anchor="end">Open feed</text><rect x="300" y="778" width="720" height="116" rx="16" ry="16" fill="#161F33" stroke="#25314D" stroke-width="1" /><text x="320" y="806" font-family="Inter, Arial, sans-serif" font-size="12" fill="#7F8CA3" font-weight="500" text-anchor="start">10:24</text><rect x="392" y="792" width="56" height="24" rx="999" ry="999" fill="#37B6FF" /><text x="420.0" y="808.0" font-family="Inter, Arial, sans-serif" font-size="11" fill="#FFFFFF" font-weight="600" text-anchor="middle">Macro</text><rect x="922" y="792" width="67" height="24" rx="999" ry="999" fill="#2A1820" stroke="#F04D5E" stroke-width="1" /><text x="955.5" y="808.0" font-family="Inter, Arial, sans-serif" font-size="11" fill="#F04D5E" font-weight="600" text-anchor="middle">Высокое</text><text x="320" y="836" font-family="Inter, Arial, sans-serif" font-size="16" fill="#F3F6FC" font-weight="600" text-anchor="start">Улучшение внешнего фона поддержало спрос на риск</text><text x="320" y="862" font-family="Inter, Arial, sans-serif" font-size="13" fill="#A8B3C7" font-weight="400" text-anchor="start">Краткое аналитическое описание события и его влияния на наблюдаемые активы.</text><rect x="320" y="864" width="56" height="22" rx="999" ry="999" fill="#12192B" stroke="#25314D" stroke-width="1" /><text x="348.0" y="879.0" font-family="Inter, Arial, sans-serif" font-size="11" fill="#A8B3C7" font-weight="600" text-anchor="middle">IMOEX</text><rect x="382" y="864" width="56" height="22" rx="999" ry="999" fill="#12192B" stroke="#25314D" stroke-width="1" /><text x="410.0" y="879.0" font-family="Inter, Arial, sans-serif" font-size="11" fill="#A8B3C7" font-weight="600" text-anchor="middle">SBER</text><rect x="300" y="910" width="720" height="116" rx="16" ry="16" fill="#161F33" stroke="#25314D" stroke-width="1" /><text x="320" y="938" font-family="Inter, Arial, sans-serif" font-size="12" fill="#7F8CA3" font-weight="500" text-anchor="start">09:10</text><rect x="392" y="924" width="81" height="24" rx="999" ry="999" fill="#8B7CFF" /><text x="432.5" y="940.0" font-family="Inter, Arial, sans-serif" font-size="11" fill="#FFFFFF" font-weight="600" text-anchor="middle">Commodity</text><rect x="922" y="924" width="67" height="24" rx="999" ry="999" fill="#2A1820" stroke="#F04D5E" stroke-width="1" /><text x="955.5" y="940.0" font-family="Inter, Arial, sans-serif" font-size="11" fill="#F04D5E" font-weight="600" text-anchor="middle">Высокое</text><text x="320" y="968" font-family="Inter, Arial, sans-serif" font-size="16" fill="#F3F6FC" font-weight="600" text-anchor="start">Нефтяной блок скорректировался на данных по запасам</text><text x="320" y="994" font-family="Inter, Arial, sans-serif" font-size="13" fill="#A8B3C7" font-weight="400" text-anchor="start">Краткое аналитическое описание события и его влияния на наблюдаемые активы.</text><rect x="320" y="996" width="56" height="22" rx="999" ry="999" fill="#12192B" stroke="#25314D" stroke-width="1" /><text x="348.0" y="1011.0" font-family="Inter, Arial, sans-serif" font-size="11" fill="#A8B3C7" font-weight="600" text-anchor="middle">BRENT</text><rect x="382" y="996" width="56" height="22" rx="999" ry="999" fill="#12192B" stroke="#25314D" stroke-width="1" /><text x="410.0" y="1011.0" font-family="Inter, Arial, sans-serif" font-size="11" fill="#A8B3C7" font-weight="600" text-anchor="middle">LKOH</text><rect x="1072" y="724" width="368" height="320" rx="16" ry="16" fill="#161F33" stroke="#25314D" stroke-width="1" /><text x="1092" y="754" font-family="Inter, Arial, sans-serif" font-size="18" fill="#F3F6FC" font-weight="600" text-anchor="start">Signals Overview</text><rect x="1092" y="778" width="328" height="42" rx="12" ry="12" fill="#12192B" stroke="#25314D" stroke-width="1" /><text x="1108" y="804" font-family="Inter, Arial, sans-serif" font-size="12" fill="#7F8CA3" font-weight="600" text-anchor="start">Bullish assets</text><text x="1400" y="804" font-family="Inter, Arial, sans-serif" font-size="13" fill="#18C37E" font-weight="700" text-anchor="end">7</text><rect x="1092" y="830" width="328" height="42" rx="12" ry="12" fill="#12192B" stroke="#25314D" stroke-width="1" /><text x="1108" y="856" font-family="Inter, Arial, sans-serif" font-size="12" fill="#7F8CA3" font-weight="600" text-anchor="start">Bearish assets</text><text x="1400" y="856" font-family="Inter, Arial, sans-serif" font-size="13" fill="#F04D5E" font-weight="700" text-anchor="end">3</text><rect x="1092" y="882" width="328" height="42" rx="12" ry="12" fill="#12192B" stroke="#25314D" stroke-width="1" /><text x="1108" y="908" font-family="Inter, Arial, sans-serif" font-size="12" fill="#7F8CA3" font-weight="600" text-anchor="start">Neutral assets</text><text x="1400" y="908" font-family="Inter, Arial, sans-serif" font-size="13" fill="#A8B3C7" font-weight="700" text-anchor="end">8</text><rect x="1092" y="934" width="328" height="42" rx="12" ry="12" fill="#12192B" stroke="#25314D" stroke-width="1" /><text x="1108" y="960" font-family="Inter, Arial, sans-serif" font-size="12" fill="#7F8CA3" font-weight="600" text-anchor="start">Strongest signal</text><text x="1400" y="960" font-family="Inter, Arial, sans-serif" font-size="13" fill="#4F7CFF" font-weight="700" text-anchor="end">SBER</text><rect x="1092" y="986" width="328" height="42" rx="12" ry="12" fill="#12192B" stroke="#25314D" stroke-width="1" /><text x="1108" y="1012" font-family="Inter, Arial, sans-serif" font-size="12" fill="#7F8CA3" font-weight="600" text-anchor="start">Highest risk area</text><text x="1400" y="1012" font-family="Inter, Arial, sans-serif" font-size="13" fill="#F5B942" font-weight="700" text-anchor="end">Oil &amp; gas</text>
</svg>