<svg xmlns="http://www.w3.org/2000/svg" width="1440" height="1240" viewBox="0 0 1440 1240" fill="none">
<style>
.small { font-family: Inter, Arial, sans-serif; font-size: 12px; fill: #7F8CA3; }
</style>
<rect x="0" y="0" width="1440" height="1240" fill="#0B1020" /><rect x="0" y="0" width="248" height="1240" fill="#09101D" /><text x="24" y="46" font-family="Inter, Arial, sans-serif" font-size="24" fill="#F3F6FC" font-weight="700" text-anchor="start">MRAP</text><text x="24" y="66" font-family="Inter, Arial, sans-serif" font-size="11" fill="#7F8CA3" font-weight="500" text-anchor="start">Market Reaction Analytics Platform</text><rect x="16" y="112" width="216" height="44" rx="12" ry="12" fill="#1D2740" stroke="#4F7CFF" stroke-width="1" /><circle cx="34" cy="134" r="6" fill="#4F7CFF" /><text x="48" y="140" font-family="Inter, Arial, sans-serif" font-size="14" fill="#F3F6FC" font-weight="600" text-anchor="start">Панель обзора</text><rect x="16" y="164" width="216" height="44" rx="12" ry="12" fill="none" /><circle cx="34" cy="186" r="6" fill="#7F8CA3" /><text x="48" y="192" font-family="Inter, Arial, sans-serif" font-size="14" fill="#A8B3C7" font-weight="500" text-anchor="start">Активы</text><rect x="16" y="216" width="216" height="44" rx="12" ry="12" fill="none" /><circle cx="34" cy="238" r="6" fill="#7F8CA3" /><text x="48" y="244" font-family="Inter, Arial, sans-serif" font-size="14" fill="#A8B3C7" font-weight="500" text-anchor="start">Новости и события</text><rect x="16" y="268" width="216" height="44" rx="12" ry="12" fill="none" /><circle cx="34" cy="290" r="6" fill="#7F8CA3" /><text x="48" y="296" font-family="Inter, Arial, sans-serif" font-size="14" fill="#A8B3C7" font-weight="500" text-anchor="start">Прогнозы</text><rect x="16" y="320" width="216" height="44" rx="12" ry="12" fill="none" /><circle cx="34" cy="342" r="6" fill="#7F8CA3" /><text x="48" y="348" font-family="Inter, Arial, sans-serif" font-size="14" fill="#A8B3C7" font-weight="500" text-anchor="start">История</text><rect x="16" y="372" width="216" height="44" rx="12" ry="12" fill="none" /><circle cx="34" cy="394" r="6" fill="#7F8CA3" /><text x="48" y="400" font-family="Inter, Arial, sans-serif" font-size="14" fill="#A8B3C7" font-weight="500" text-anchor="start">Настройки</text><rect x="16" y="1152" width="216" height="56" rx="14" ry="14" fill="#161F33" stroke="#25314D" stroke-width="1" /><circle cx="42" cy="1180" r="14" fill="#4F7CFF" opacity="0.9" /><text x="64" y="1184" font-family="Inter, Arial, sans-serif" font-size="13" fill="#F3F6FC" font-weight="600" text-anchor="start">Никита Стоянов</text><text x="64" y="1202" font-family="Inter, Arial, sans-serif" font-size="12" fill="#7F8CA3" font-weight="400" text-anchor="start">Выход</text><rect x="280" y="20" width="1152" height="72" fill="none" /><text x="280" y="64" font-family="Inter, Arial, sans-serif" font-size="24" fill="#F3F6FC" font-weight="700" text-anchor="start">Прогнозы</text><rect x="736" y="34" width="320" height="44" rx="12" ry="12" fill="#12192B" stroke="#25314D" stroke-width="1" /><circle cx="756" cy="56.0" r="7" fill="none" stroke="#7F8CA3" stroke-width="1.5" /><line x1="761" y1="61.0" x2="767" y2="67.0" stroke="#7F8CA3" stroke-width="1.5" /><text x="776" y="61.0" font-family="Inter, Arial, sans-serif" font-size="14" fill="#7F8CA3" font-weight="400" text-anchor="start">Поиск по активам, новостям, прогнозам</text><rect x="1080" y="42" width="139" height="28" rx="999" ry="999" fill="#132B22" /><text x="1149.5" y="60.0" font-family="Inter, Arial, sans-serif" font-size="12" fill="#18C37E" font-weight="600" text-anchor="middle">Данные обновлены</text><rect x="1224" y="34" width="44" height="44" rx="12" ry="12" fill="#1A243A" stroke="#2B3A5B" stroke-width="1" /><text x="1246" y="62" font-family="Inter, Arial, sans-serif" font-size="18" fill="#A8B3C7" font-weight="600" text-anchor="middle">↻</text><rect x="1272" y="34" width="160" height="44" rx="12" ry="12" fill="#161F33" stroke="#25314D" stroke-width="1" /><circle cx="1298" cy="56" r="10" fill="#4F7CFF" /><text x="1318" y="61" font-family="Inter, Arial, sans-serif" font-size="13" fill="#F3F6FC" font-weight="600" text-anchor="start">Никита</text><text x="1398" y="61" font-family="Inter, Arial, sans-serif" font-size="12" fill="#A8B3C7" font-weight="600" text-anchor="start">▾</text><text x="280" y="140" font-family="Inter, Arial, sans-serif" font-size="24" fill="#F3F6FC" font-weight="700" text-anchor="start">Forecasts</text><text x="280" y="166" font-family="Inter, Arial, sans-serif" font-size="14" fill="#A8B3C7" font-weight="400" text-anchor="start">Latest generated market reaction signals</text><rect x="280" y="196" width="270" height="140" rx="16" ry="16" fill="#161F33" stroke="#25314D" stroke-width="1" /><text x="300" y="238" font-family="Inter, Arial, sans-serif" font-size="14" fill="#A8B3C7" font-weight="600" text-anchor="start">Bullish forecasts</text><text x="300" y="280" font-family="Inter, Arial, sans-serif" font-size="28" fill="#F3F6FC" font-weight="700" text-anchor="start">9</text><line x1="300" y1="296" x2="530" y2="296" stroke="#25314D" stroke-width="1" opacity="0.5" /><text x="300" y="320" font-family="Inter, Arial, sans-serif" font-size="12" fill="#7F8CA3" font-weight="500" text-anchor="start">Most active direction</text><rect x="510" y="218" width="12" height="12" rx="4" ry="4" fill="#18C37E" /><rect x="574" y="196" width="270" height="140" rx="16" ry="16" fill="#161F33" stroke="#25314D" stroke-width="1" /><text x="594" y="238" font-family="Inter, Arial, sans-serif" font-size="14" fill="#A8B3C7" font-weight="600" text-anchor="start">Bearish forecasts</text><text x="594" y="280" font-family="Inter, Arial, sans-serif" font-size="28" fill="#F3F6FC" font-weight="700" text-anchor="start">5</text><line x1="594" y1="296" x2="824" y2="296" stroke="#25314D" stroke-width="1" opacity="0.5" /><text x="594" y="320" font-family="Inter, Arial, sans-serif" font-size="12" fill="#7F8CA3" font-weight="500" text-anchor="start">Risk-sensitive assets</text><rect x="804" y="218" width="12" height="12" rx="4" ry="4" fill="#F04D5E" /><rect x="868" y="196" width="270" height="140" rx="16" ry="16" fill="#161F33" stroke="#25314D" stroke-width="1" /><text x="888" y="238" font-family="Inter, Arial, sans-serif" font-size="14" fill="#A8B3C7" font-weight="600" text-anchor="start">Average confidence</text><text x="888" y="280" font-family="Inter, Arial, sans-serif" font-size="28" fill="#F3F6FC" font-weight="700" text-anchor="start">74%</text><line x1="888" y1="296" x2="1118" y2="296" stroke="#25314D" stroke-width="1" opacity="0.5" /><text x="888" y="320" font-family="Inter, Arial, sans-serif" font-size="12" fill="#7F8CA3" font-weight="500" text-anchor="start">Rolling 7-day average</text><rect x="1098" y="218" width="12" height="12" rx="4" ry="4" fill="#F5B942" /><rect x="1162" y="196" width="270" height="140" rx="16" ry="16" fill="#161F33" stroke="#25314D" stroke-width="1" /><text x="1182" y="238" font-family="Inter, Arial, sans-serif" font-size="14" fill="#A8B3C7" font-weight="600" text-anchor="start">Latest generation</text><text x="1182" y="280" font-family="Inter, Arial, sans-serif" font-size="28" fill="#F3F6FC" font-weight="700" text-anchor="start">10:24</text><line x1="1182" y1="296" x2="1412" y2="296" stroke="#25314D" stroke-width="1" opacity="0.5" /><text x="1182" y="320" font-family="Inter, Arial, sans-serif" font-size="12" fill="#7F8CA3" font-weight="500" text-anchor="start">Most recent batch</text><rect x="1392" y="218" width="12" height="12" rx="4" ry="4" fill="#4F7CFF" /><rect x="280" y="360" width="280" height="44" rx="12" ry="12" fill="#12192B" stroke="#25314D" stroke-width="1" /><circle cx="300" cy="382.0" r="7" fill="none" stroke="#7F8CA3" stroke-width="1.5" /><line x1="305" y1="387.0" x2="311" y2="393.0" stroke="#7F8CA3" stroke-width="1.5" /><text x="320" y="387.0" font-family="Inter, Arial, sans-serif" font-size="14" fill="#7F8CA3" font-weight="400" text-anchor="start">Filter by asset</text><rect x="584" y="368" width="72" height="28" rx="999" ry="999" fill="#12192B" stroke="#25314D" stroke-width="1" /><text x="620.0" y="386.0" font-family="Inter, Arial, sans-serif" font-size="12" fill="#A8B3C7" font-weight="600" text-anchor="middle">Bullish</text><rect x="668" y="368" width="72" height="28" rx="999" ry="999" fill="#12192B" stroke="#25314D" stroke-width="1" /><text x="704.0" y="386.0" font-family="Inter, Arial, sans-serif" font-size="12" fill="#A8B3C7" font-weight="600" text-anchor="middle">Bearish</text><rect x="752" y="368" width="94" height="28" rx="999" ry="999" fill="#12192B" stroke="#25314D" stroke-width="1" /><text x="799.0" y="386.0" font-family="Inter, Arial, sans-serif" font-size="12" fill="#A8B3C7" font-weight="600" text-anchor="middle">High conf.</text><rect x="858" y="368" width="101" height="28" rx="999" ry="999" fill="#12192B" stroke="#25314D" stroke-width="1" /><text x="908.5" y="386.0" font-family="Inter, Arial, sans-serif" font-size="12" fill="#A8B3C7" font-weight="600" text-anchor="middle">Last 7 days</text><rect x="1328" y="360" width="104" height="44" rx="12" ry="12" fill="#1A243A" stroke="#2B3A5B" stroke-width="1" /><text x="1380.0" y="387.0" font-family="Inter, Arial, sans-serif" font-size="14" fill="#DCE6F7" font-weight="600" text-anchor="middle">Reset</text><rect x="280" y="436" width="1152" height="48" rx="12" ry="12" fill="#12192B" stroke="#25314D" stroke-width="1" /><text x="300" y="466.0" font-family="Inter, Arial, sans-serif" font-size="12" fill="#7F8CA3" font-weight="600" text-anchor="start">Asset</text><text x="460" y="466.0" font-family="Inter, Arial, sans-serif" font-size="12" fill="#7F8CA3" font-weight="600" text-anchor="start">Direction</text><text x="580" y="466.0" font-family="Inter, Arial, sans-serif" font-size="12" fill="#7F8CA3" font-weight="600" text-anchor="start">Strength</text><text x="700" y="466.0" font-family="Inter, Arial, sans-serif" font-size="12" fill="#7F8CA3" font-weight="600" text-anchor="start">Confidence</text><text x="820" y="466.0" font-family="Inter, Arial, sans-serif" font-size="12" fill="#7F8CA3" font-weight="600" text-anchor="start">Explanation preview</text><text x="1212" y="466.0" font-family="Inter, Arial, sans-serif" font-size="12" fill="#7F8CA3" font-weight="600" text-anchor="start">Created</text><text x="1392.0" y="466.0" font-family="Inter, Arial, sans-serif" font-size="12" fill="#7F8CA3" font-weight="600" text-anchor="middle">Action</text><rect x="280" y="492" width="1152" height="72" rx="12" ry="12" fill="#161F33" stroke="#25314D" stroke-width="1" /><text x="300" y="536" font-family="Inter, Arial, sans-serif" font-size="13" fill="#F3F6FC" font-weight="600" text-anchor="start">SBER</text><text x="460" y="536" font-family="Inter, Arial, sans-serif" font-size="13" fill="#18C37E" font-weight="700" text-anchor="start">Bullish</text><line x1="440" y1="508" x2="440" y2="548" stroke="#25314D" stroke-width="1" opacity="0.35" /><text x="580" y="536" font-family="Inter, Arial, sans-serif" font-size="13" fill="#A8B3C7" font-weight="500" text-anchor="start">Strong</text><line x1="560" y1="508" x2="560" y2="548" stroke="#25314D" stroke-width="1" opacity="0.35" /><text x="700" y="536" font-family="Inter, Arial, sans-serif" font-size="13" fill="#A8B3C7" font-weight="500" text-anchor="start">High</text><line x1="680" y1="508" x2="680" y2="548" stroke="#25314D" stroke-width="1" opacity="0.35" /><text x="820" y="536" font-family="Inter, Arial, sans-serif" font-size="13" fill="#A8B3C7" font-weight="400" text-anchor="start">Positive news flow and stable regime support short-term upside.</text><line x1="800" y1="508" x2="800" y2="548" stroke="#25314D" stroke-width="1" opacity="0.35" /><text x="1212" y="536" font-family="Inter, Arial, sans-serif" font-size="13" fill="#7F8CA3" font-weight="500" text-anchor="start">10:24</text><line x1="1192" y1="508" x2="1192" y2="548" stroke="#25314D" stroke-width="1" opacity="0.35" /><text x="1392.0" y="536" font-family="Inter, Arial, sans-serif" font-size="13" fill="#4F7CFF" font-weight="600" text-anchor="middle">Открыть</text><line x1="1352" y1="508" x2="1352" y2="548" stroke="#25314D" stroke-width="1" opacity="0.35" /><rect x="280" y="572" width="1152" height="72" rx="12" ry="12" fill="#161F33" stroke="#25314D" stroke-width="1" /><text x="300" y="616" font-family="Inter, Arial, sans-serif" font-size="13" fill="#F3F6FC" font-weight="600" text-anchor="start">BRENT</text><text x="460" y="616" font-family="Inter, Arial, sans-serif" font-size="13" fill="#F04D5E" font-weight="700" text-anchor="start">Bearish</text><line x1="440" y1="588" x2="440" y2="628" stroke="#25314D" stroke-width="1" opacity="0.35" /><text x="580" y="616" font-family="Inter, Arial, sans-serif" font-size="13" fill="#A8B3C7" font-weight="500" text-anchor="start">Medium</text><line x1="560" y1="588" x2="560" y2="628" stroke="#25314D" stroke-width="1" opacity="0.35" /><text x="700" y="616" font-family="Inter, Arial, sans-serif" font-size="13" fill="#A8B3C7" font-weight="500" text-anchor="start">Medium</text><line x1="680" y1="588" x2="680" y2="628" stroke="#25314D" stroke-width="1" opacity="0.35" /><text x="820" y="616" font-family="Inter, Arial, sans-serif" font-size="13" fill="#A8B3C7" font-weight="400" text-anchor="start">Inventory-related pressure increases downside risk in the current window.</text><line x1="800" y1="588" x2="800" y2="628" stroke="#25314D" stroke-width="1" opacity="0.35" /><text x="1212" y="616" font-family="Inter, Arial, sans-serif" font-size="13" fill="#7F8CA3" font-weight="500" text-anchor="start">09:52</text><line x1="1192" y1="588" x2="1192" y2="628" stroke="#25314D" stroke-width="1" opacity="0.35" /><text x="1392.0" y="616" font-family="Inter, Arial, sans-serif" font-size="13" fill="#4F7CFF" font-weight="600" text-anchor="middle">Открыть</text><line x1="1352" y1="588" x2="1352" y2="628" stroke="#25314D" stroke-width="1" opacity="0.35" /><rect x="280" y="652" width="1152" height="72" rx="12" ry="12" fill="#161F33" stroke="#25314D" stroke-width="1" /><text x="300" y="696" font-family="Inter, Arial, sans-serif" font-size="13" fill="#F3F6FC" font-weight="600" text-anchor="start">IMOEX</text><text x="460" y="696" font-family="Inter, Arial, sans-serif" font-size="13" fill="#18C37E" font-weight="700" text-anchor="start">Bullish</text><line x1="440" y1="668" x2="440" y2="708" stroke="#25314D" stroke-width="1" opacity="0.35" /><text x="580" y="696" font-family="Inter, Arial, sans-serif" font-size="13" fill="#A8B3C7" font-weight="500" text-anchor="start">Medium</text><line x1="560" y1="668" x2="560" y2="708" stroke="#25314D" stroke-width="1" opacity="0.35" /><text x="700" y="696" font-family="Inter, Arial, sans-serif" font-size="13" fill="#A8B3C7" font-weight="500" text-anchor="start">High</text><line x1="680" y1="668" x2="680" y2="708" stroke="#25314D" stroke-width="1" opacity="0.35" /><text x="820" y="696" font-family="Inter, Arial, sans-serif" font-size="13" fill="#A8B3C7" font-weight="400" text-anchor="start">Index reaction remains constructive with broad-based participation.</text><line x1="800" y1="668" x2="800" y2="708" stroke="#25314D" stroke-width="1" opacity="0.35" /><text x="1212" y="696" font-family="Inter, Arial, sans-serif" font-size="13" fill="#7F8CA3" font-weight="500" text-anchor="start">09:31</text><line x1="1192" y1="668" x2="1192" y2="708" stroke="#25314D" stroke-width="1" opacity="0.35" /><text x="1392.0" y="696" font-family="Inter, Arial, sans-serif" font-size="13" fill="#4F7CFF" font-weight="600" text-anchor="middle">Открыть</text><line x1="1352" y1="668" x2="1352" y2="708" stroke="#25314D" stroke-width="1" opacity="0.35" /><rect x="280" y="732" width="1152" height="72" rx="12" ry="12" fill="#161F33" stroke="#25314D" stroke-width="1" /><text x="300" y="776" font-family="Inter, Arial, sans-serif" font-size="13" fill="#F3F6FC" font-weight="600" text-anchor="start">YDEX</text><text x="460" y="776" font-family="Inter, Arial, sans-serif" font-size="13" fill="#A8B3C7" font-weight="700" text-anchor="start">Neutral</text><line x1="440" y1="748" x2="440" y2="788" stroke="#25314D" stroke-width="1" opacity="0.35" /><text x="580" y="776" font-family="Inter, Arial, sans-serif" font-size="13" fill="#A8B3C7" font-weight="500" text-anchor="start">Low</text><line x1="560" y1="748" x2="560" y2="788" stroke="#25314D" stroke-width="1" opacity="0.35" /><text x="700" y="776" font-family="Inter, Arial, sans-serif" font-size="13" fill="#A8B3C7" font-weight="500" text-anchor="start">Low</text><line x1="680" y1="748" x2="680" y2="788" stroke="#25314D" stroke-width="1" opacity="0.35" /><text x="820" y="776" font-family="Inter, Arial, sans-serif" font-size="13" fill="#A8B3C7" font-weight="400" text-anchor="start">Signal remains mixed due to offsetting news and technical inputs.</text><line x1="800" y1="748" x2="800" y2="788" stroke="#25314D" stroke-width="1" opacity="0.35" /><text x="1212" y="776" font-family="Inter, Arial, sans-serif" font-size="13" fill="#7F8CA3" font-weight="500" text-anchor="start">08:40</text><line x1="1192" y1="748" x2="1192" y2="788" stroke="#25314D" stroke-width="1" opacity="0.35" /><text x="1392.0" y="776" font-family="Inter, Arial, sans-serif" font-size="13" fill="#4F7CFF" font-weight="600" text-anchor="middle">Открыть</text><line x1="1352" y1="748" x2="1352" y2="788" stroke="#25314D" stroke-width="1" opacity="0.35" /><rect x="280" y="820" width="1152" height="228" rx="16" ry="16" fill="#161F33" stroke="#25314D" stroke-width="1" /><text x="300" y="864" font-family="Inter, Arial, sans-serif" font-size="16" fill="#F3F6FC" font-weight="700" text-anchor="start">SBER</text><text x="420" y="864" font-family="Inter, Arial, sans-serif" font-size="14" fill="#18C37E" font-weight="700" text-anchor="start">Bullish</text><text x="540" y="864" font-family="Inter, Arial, sans-serif" font-size="14" fill="#A8B3C7" font-weight="500" text-anchor="start">High</text><text x="1180" y="864" font-family="Inter, Arial, sans-serif" font-size="12" fill="#7F8CA3" font-weight="400" text-anchor="start">10:24</text><line x1="300" y1="884" x2="1412" y2="884" stroke="#25314D" stroke-width="1" opacity="0.5" /><text x="300" y="916" font-family="Inter, Arial, sans-serif" font-size="14" fill="#F3F6FC" font-weight="600" text-anchor="start">Full explanation</text><text x="300" y="944" font-family="Inter, Arial, sans-serif" font-size="14" fill="#A8B3C7" font-weight="400" text-anchor="start"><tspan x="300" dy="0">The model assigns a bullish short-term reaction due to constructive news signals,</tspan><tspan x="300" dy="18.900000000000002">positive technical momentum and a market regime that does not yet indicate critical stress.</tspan></text><rect x="300" y="986" width="140" height="40" rx="12" ry="12" fill="#12192B" stroke="#25314D" stroke-width="1" /><text x="312" y="1010" font-family="Inter, Arial, sans-serif" font-size="12" fill="#7F8CA3" font-weight="600" text-anchor="start">News</text><text x="426" y="1010" font-family="Inter, Arial, sans-serif" font-size="12" fill="#4F7CFF" font-weight="700" text-anchor="end">+0.34</text><rect x="452" y="986" width="140" height="40" rx="12" ry="12" fill="#12192B" stroke="#25314D" stroke-width="1" /><text x="464" y="1010" font-family="Inter, Arial, sans-serif" font-size="12" fill="#7F8CA3" font-weight="600" text-anchor="start">Technicals</text><text x="578" y="1010" font-family="Inter, Arial, sans-serif" font-size="12" fill="#18C37E" font-weight="700" text-anchor="end">+0.28</text><rect x="604" y="986" width="140" height="40" rx="12" ry="12" fill="#12192B" stroke="#25314D" stroke-width="1" /><text x="616" y="1010" font-family="Inter, Arial, sans-serif" font-size="12" fill="#7F8CA3" font-weight="600" text-anchor="start">Macro</text><text x="730" y="1010" font-family="Inter, Arial, sans-serif" font-size="12" fill="#37B6FF" font-weight="700" text-anchor="end">+0.11</text><rect x="756" y="986" width="140" height="40" rx="12" ry="12" fill="#12192B" stroke="#25314D" stroke-width="1" /><text x="768" y="1010" font-family="Inter, Arial, sans-serif" font-size="12" fill="#7F8CA3" font-weight="600" text-anchor="start">Regime</text><text x="882" y="1010" font-family="Inter, Arial, sans-serif" font-size="12" fill="#F5B942" font-weight="700" text-anchor="end">+0.17</text><text x="300" y="1078" font-family="Inter, Arial, sans-serif" font-size="13" fill="#A8B3C7" font-weight="400" text-anchor="start">Linked events: Macro release, banking sector news, market breadth improvement</text>
</svg>