<svg xmlns="http://www.w3.org/2000/svg" width="1440" height="1024" viewBox="0 0 1440 1024" fill="none">
<style>
.small { font-family: Inter, Arial, sans-serif; font-size: 12px; fill: #7F8CA3; }
</style>
<rect x="0" y="0" width="1440" height="1024" fill="#0B1020" /><rect x="0" y="0" width="792" height="1024" fill="#0C1326" /><line x1="64" y1="120" x2="720" y2="70" stroke="#1E2B48" stroke-width="1" opacity="0.5" /><line x1="64" y1="210" x2="720" y2="160" stroke="#1E2B48" stroke-width="1" opacity="0.5" /><line x1="64" y1="300" x2="720" y2="250" stroke="#1E2B48" stroke-width="1" opacity="0.5" /><line x1="64" y1="390" x2="720" y2="340" stroke="#1E2B48" stroke-width="1" opacity="0.5" /><line x1="64" y1="480" x2="720" y2="430" stroke="#1E2B48" stroke-width="1" opacity="0.5" /><line x1="64" y1="570" x2="720" y2="520" stroke="#1E2B48" stroke-width="1" opacity="0.5" /><line x1="64" y1="660" x2="720" y2="610" stroke="#1E2B48" stroke-width="1" opacity="0.5" /><line x1="64" y1="750" x2="720" y2="700" stroke="#1E2B48" stroke-width="1" opacity="0.5" /><line x1="64" y1="840" x2="720" y2="790" stroke="#1E2B48" stroke-width="1" opacity="0.5" /><line x1="80" y1="80" x2="120" y2="920" stroke="#16233F" stroke-width="1" opacity="0.35" /><line x1="160" y1="80" x2="200" y2="920" stroke="#16233F" stroke-width="1" opacity="0.35" /><line x1="240" y1="80" x2="280" y2="920" stroke="#16233F" stroke-width="1" opacity="0.35" /><line x1="320" y1="80" x2="360" y2="920" stroke="#16233F" stroke-width="1" opacity="0.35" /><line x1="400" y1="80" x2="440" y2="920" stroke="#16233F" stroke-width="1" opacity="0.35" /><line x1="480" y1="80" x2="520" y2="920" stroke="#16233F" stroke-width="1" opacity="0.35" /><line x1="560" y1="80" x2="600" y2="920" stroke="#16233F" stroke-width="1" opacity="0.35" /><line x1="640" y1="80" x2="680" y2="920" stroke="#16233F" stroke-width="1" opacity="0.35" /><text x="96" y="300" font-family="Inter, Arial, sans-serif" font-size="40" fill="#F3F6FC" font-weight="700" text-anchor="start">AI platform for market reaction analysis</text><text x="96" y="352" font-family="Inter, Arial, sans-serif" font-size="18" fill="#A8B3C7" font-weight="400" text-anchor="start"><tspan x="96" dy="0">Open-source news, macro and market data combined</tspan><tspan x="96" dy="24.3">into short-term forecasts</tspan></text><circle cx="108" cy="576" r="6" fill="#37B6FF" /><text x="128" y="582" font-family="Inter, Arial, sans-serif" font-size="18" fill="#F3F6FC" font-weight="600" text-anchor="start">News-driven signals</text><circle cx="108" cy="620" r="6" fill="#F5B942" /><text x="128" y="626" font-family="Inter, Arial, sans-serif" font-size="18" fill="#F3F6FC" font-weight="600" text-anchor="start">Market regime indicator</text><circle cx="108" cy="664" r="6" fill="#4F7CFF" /><text x="128" y="670" font-family="Inter, Arial, sans-serif" font-size="18" fill="#F3F6FC" font-weight="600" text-anchor="start">Forecast history and explanations</text><rect x="792" y="0" width="648" height="1024" fill="#0B1020" /><rect x="834" y="294" width="420" height="436" rx="16" ry="16" fill="#161F33" stroke="#25314D" stroke-width="1" /><text x="1044" y="358" font-family="Inter, Arial, sans-serif" font-size="26" fill="#F3F6FC" font-weight="700" text-anchor="middle">MRAP</text><text x="1044" y="374" font-family="Inter, Arial, sans-serif" font-size="10" fill="#7F8CA3" font-weight="400" text-anchor="middle">Market Reaction Analytics Platform</text><text x="1044" y="424" font-family="Inter, Arial, sans-serif" font-size="28" fill="#F3F6FC" font-weight="700" text-anchor="middle">Sign in</text><text x="1044" y="452" font-family="Inter, Arial, sans-serif" font-size="14" fill="#A8B3C7" font-weight="400" text-anchor="middle">Access to analytics dashboard</text><rect x="866" y="478" width="356" height="44" rx="12" ry="12" fill="#12192B" stroke="#25314D" stroke-width="1" /><text x="884" y="505.0" font-family="Inter, Arial, sans-serif" font-size="14" fill="#7F8CA3" font-weight="400" text-anchor="start">Email</text><rect x="866" y="538" width="356" height="44" rx="12" ry="12" fill="#12192B" stroke="#25314D" stroke-width="1" /><text x="884" y="565.0" font-family="Inter, Arial, sans-serif" font-size="14" fill="#7F8CA3" font-weight="400" text-anchor="start">Password</text><rect x="866" y="602" width="356" height="44" rx="12" ry="12" fill="#4F7CFF" /><text x="1044.0" y="629.0" font-family="Inter, Arial, sans-serif" font-size="14" fill="#FFFFFF" font-weight="600" text-anchor="middle">Login</text><text x="1044" y="680" font-family="Inter, Arial, sans-serif" font-size="12" fill="#7F8CA3" font-weight="400" text-anchor="middle">Protected analytics workspace</text><text x="1044" y="704" font-family="Inter, Arial, sans-serif" font-size="12" fill="#7F8CA3" font-weight="400" text-anchor="middle">Use your corporate credentials to continue</text>
</svg>