<svg xmlns="http://www.w3.org/2000/svg" width="1440" height="1280" viewBox="0 0 1440 1280" fill="none">
<style>
.small { font-family: Inter, Arial, sans-serif; font-size: 12px; fill: #7F8CA3; }
</style>
<rect x="0" y="0" width="1440" height="1280" fill="#0B1020" /><rect x="0" y="0" width="248" height="1280" fill="#09101D" /><text x="24" y="46" font-family="Inter, Arial, sans-serif" font-size="24" fill="#F3F6FC" font-weight="700" text-anchor="start">MRAP</text><text x="24" y="66" font-family="Inter, Arial, sans-serif" font-size="11" fill="#7F8CA3" font-weight="500" text-anchor="start">Market Reaction Analytics Platform</text><rect x="16" y="112" width="216" height="44" rx="12" ry="12" fill="#1D2740" stroke="#4F7CFF" stroke-width="1" /><circle cx="34" cy="134" r="6" fill="#4F7CFF" /><text x="48" y="140" font-family="Inter, Arial, sans-serif" font-size="14" fill="#F3F6FC" font-weight="600" text-anchor="start">Панель обзора</text><rect x="16" y="164" width="216" height="44" rx="12" ry="12" fill="none" /><circle cx="34" cy="186" r="6" fill="#7F8CA3" /><text x="48" y="192" font-family="Inter, Arial, sans-serif" font-size="14" fill="#A8B3C7" font-weight="500" text-anchor="start">Активы</text><rect x="16" y="216" width="216" height="44" rx="12" ry="12" fill="none" /><circle cx="34" cy="238" r="6" fill="#7F8CA3" /><text x="48" y="244" font-family="Inter, Arial, sans-serif" font-size="14" fill="#A8B3C7" font-weight="500" text-anchor="start">Новости и события</text><rect x="16" y="268" width="216" height="44" rx="12" ry="12" fill="none" /><circle cx="34" cy="290" r="6" fill="#7F8CA3" /><text x="48" y="296" font-family="Inter, Arial, sans-serif" font-size="14" fill="#A8B3C7" font-weight="500" text-anchor="start">Прогнозы</text><rect x="16" y="320" width="216" height="44" rx="12" ry="12" fill="none" /><circle cx="34" cy="342" r="6" fill="#7F8CA3" /><text x="48" y="348" font-family="Inter, Arial, sans-serif" font-size="14" fill="#A8B3C7" font-weight="500" text-anchor="start">История</text><rect x="16" y="372" width="216" height="44" rx="12" ry="12" fill="none" /><circle cx="34" cy="394" r="6" fill="#7F8CA3" /><text x="48" y="400" font-family="Inter, Arial, sans-serif" font-size="14" fill="#A8B3C7" font-weight="500" text-anchor="start">Настройки</text><rect x="16" y="1192" width="216" height="56" rx="14" ry="14" fill="#161F33" stroke="#25314D" stroke-width="1" /><circle cx="42" cy="1220" r="14" fill="#4F7CFF" opacity="0.9" /><text x="64" y="1224" font-family="Inter, Arial, sans-serif" font-size="13" fill="#F3F6FC" font-weight="600" text-anchor="start">Никита Стоянов</text><text x="64" y="1242" font-family="Inter, Arial, sans-serif" font-size="12" fill="#7F8CA3" font-weight="400" text-anchor="start">Выход</text><rect x="280" y="20" width="1152" height="72" fill="none" /><text x="280" y="64" font-family="Inter, Arial, sans-serif" font-size="24" fill="#F3F6FC" font-weight="700" text-anchor="start">Новости и события</text><rect x="736" y="34" width="320" height="44" rx="12" ry="12" fill="#12192B" stroke="#25314D" stroke-width="1" /><circle cx="756" cy="56.0" r="7" fill="none" stroke="#7F8CA3" stroke-width="1.5" /><line x1="761" y1="61.0" x2="767" y2="67.0" stroke="#7F8CA3" stroke-width="1.5" /><text x="776" y="61.0" font-family="Inter, Arial, sans-serif" font-size="14" fill="#7F8CA3" font-weight="400" text-anchor="start">Поиск по активам, новостям, прогнозам</text><rect x="1080" y="42" width="139" height="28" rx="999" ry="999" fill="#132B22" /><text x="1149.5" y="60.0" font-family="Inter, Arial, sans-serif" font-size="12" fill="#18C37E" font-weight="600" text-anchor="middle">Данные обновлены</text><rect x="1224" y="34" width="44" height="44" rx="12" ry="12" fill="#1A243A" stroke="#2B3A5B" stroke-width="1" /><text x="1246" y="62" font-family="Inter, Arial, sans-serif" font-size="18" fill="#A8B3C7" font-weight="600" text-anchor="middle">↻</text><rect x="1272" y="34" width="160" height="44" rx="12" ry="12" fill="#161F33" stroke="#25314D" stroke-width="1" /><circle cx="1298" cy="56" r="10" fill="#4F7CFF" /><text x="1318" y="61" font-family="Inter, Arial, sans-serif" font-size="13" fill="#F3F6FC" font-weight="600" text-anchor="start">Никита</text><text x="1398" y="61" font-family="Inter, Arial, sans-serif" font-size="12" fill="#A8B3C7" font-weight="600" text-anchor="start">▾</text><text x="280" y="140" font-family="Inter, Arial, sans-serif" font-size="24" fill="#F3F6FC" font-weight="700" text-anchor="start">News &amp; Events</text><text x="280" y="166" font-family="Inter, Arial, sans-serif" font-size="14" fill="#A8B3C7" font-weight="400" text-anchor="start">Analytical event feed linked to assets and forecasts</text><rect x="280" y="196" width="280" height="44" rx="12" ry="12" fill="#12192B" stroke="#25314D" stroke-width="1" /><circle cx="300" cy="218.0" r="7" fill="none" stroke="#7F8CA3" stroke-width="1.5" /><line x1="305" y1="223.0" x2="311" y2="229.0" stroke="#7F8CA3" stroke-width="1.5" /><text x="320" y="223.0" font-family="Inter, Arial, sans-serif" font-size="14" fill="#7F8CA3" font-weight="400" text-anchor="start">Поиск по заголовку</text><rect x="584" y="204" width="57" height="28" rx="999" ry="999" fill="#12192B" stroke="#25314D" stroke-width="1" /><text x="612.5" y="222.0" font-family="Inter, Arial, sans-serif" font-size="12" fill="#A8B3C7" font-weight="600" text-anchor="middle">Macro</text><rect x="653" y="204" width="86" height="28" rx="999" ry="999" fill="#12192B" stroke="#25314D" stroke-width="1" /><text x="696.0" y="222.0" font-family="Inter, Arial, sans-serif" font-size="12" fill="#A8B3C7" font-weight="600" text-anchor="middle">Corporate</text><rect x="751" y="204" width="86" height="28" rx="999" ry="999" fill="#12192B" stroke="#25314D" stroke-width="1" /><text x="794.0" y="222.0" font-family="Inter, Arial, sans-serif" font-size="12" fill="#A8B3C7" font-weight="600" text-anchor="middle">Commodity</text><rect x="849" y="204" width="64" height="28" rx="999" ry="999" fill="#12192B" stroke="#25314D" stroke-width="1" /><text x="881.0" y="222.0" font-family="Inter, Arial, sans-serif" font-size="12" fill="#A8B3C7" font-weight="600" text-anchor="middle">7 days</text><rect x="925" y="204" width="101" height="28" rx="999" ry="999" fill="#12192B" stroke="#25314D" stroke-width="1" /><text x="975.5" y="222.0" font-family="Inter, Arial, sans-serif" font-size="12" fill="#A8B3C7" font-weight="600" text-anchor="middle">High impact</text><rect x="1328" y="196" width="104" height="44" rx="12" ry="12" fill="#1A243A" stroke="#2B3A5B" stroke-width="1" /><text x="1380.0" y="223.0" font-family="Inter, Arial, sans-serif" font-size="14" fill="#DCE6F7" font-weight="600" text-anchor="middle">Reset</text><rect x="280" y="280" width="760" height="148" rx="16" ry="16" fill="#161F33" stroke="#25314D" stroke-width="1" /><text x="300" y="308" font-family="Inter, Arial, sans-serif" font-size="12" fill="#7F8CA3" font-weight="500" text-anchor="start">10:24</text><rect x="372" y="294" width="56" height="24" rx="999" ry="999" fill="#37B6FF" /><text x="400.0" y="310.0" font-family="Inter, Arial, sans-serif" font-size="11" fill="#FFFFFF" font-weight="600" text-anchor="middle">Macro</text><rect x="942" y="294" width="67" height="24" rx="999" ry="999" fill="#2A1820" stroke="#F04D5E" stroke-width="1" /><text x="975.5" y="310.0" font-family="Inter, Arial, sans-serif" font-size="11" fill="#F04D5E" font-weight="600" text-anchor="middle">Высокое</text><text x="300" y="338" font-family="Inter, Arial, sans-serif" font-size="16" fill="#F3F6FC" font-weight="600" text-anchor="start">Публикация макроданных улучшила настроение рынка</text><text x="300" y="364" font-family="Inter, Arial, sans-serif" font-size="13" fill="#A8B3C7" font-weight="400" text-anchor="start">2–3 строки аналитического описания события, его контекста и краткой оценки влияния на наблюдаемые активы.</text><rect x="300" y="398" width="56" height="22" rx="999" ry="999" fill="#12192B" stroke="#25314D" stroke-width="1" /><text x="328.0" y="413.0" font-family="Inter, Arial, sans-serif" font-size="11" fill="#A8B3C7" font-weight="600" text-anchor="middle">IMOEX</text><rect x="362" y="398" width="56" height="22" rx="999" ry="999" fill="#12192B" stroke="#25314D" stroke-width="1" /><text x="390.0" y="413.0" font-family="Inter, Arial, sans-serif" font-size="11" fill="#A8B3C7" font-weight="600" text-anchor="middle">SBER</text><rect x="280" y="444" width="760" height="148" rx="16" ry="16" fill="#161F33" stroke="#25314D" stroke-width="1" /><text x="300" y="472" font-family="Inter, Arial, sans-serif" font-size="12" fill="#7F8CA3" font-weight="500" text-anchor="start">09:10</text><rect x="372" y="458" width="81" height="24" rx="999" ry="999" fill="#8B7CFF" /><text x="412.5" y="474.0" font-family="Inter, Arial, sans-serif" font-size="11" fill="#FFFFFF" font-weight="600" text-anchor="middle">Commodity</text><rect x="942" y="458" width="67" height="24" rx="999" ry="999" fill="#2A1820" stroke="#F04D5E" stroke-width="1" /><text x="975.5" y="474.0" font-family="Inter, Arial, sans-serif" font-size="11" fill="#F04D5E" font-weight="600" text-anchor="middle">Высокое</text><text x="300" y="502" font-family="Inter, Arial, sans-serif" font-size="16" fill="#F3F6FC" font-weight="600" text-anchor="start">Нефтяной блок снизился после данных по запасам</text><text x="300" y="528" font-family="Inter, Arial, sans-serif" font-size="13" fill="#A8B3C7" font-weight="400" text-anchor="start">2–3 строки аналитического описания события, его контекста и краткой оценки влияния на наблюдаемые активы.</text><rect x="300" y="562" width="56" height="22" rx="999" ry="999" fill="#12192B" stroke="#25314D" stroke-width="1" /><text x="328.0" y="577.0" font-family="Inter, Arial, sans-serif" font-size="11" fill="#A8B3C7" font-weight="600" text-anchor="middle">BRENT</text><rect x="362" y="562" width="56" height="22" rx="999" ry="999" fill="#12192B" stroke="#25314D" stroke-width="1" /><text x="390.0" y="577.0" font-family="Inter, Arial, sans-serif" font-size="11" fill="#A8B3C7" font-weight="600" text-anchor="middle">LKOH</text><rect x="280" y="608" width="760" height="148" rx="16" ry="16" fill="#161F33" stroke="#25314D" stroke-width="1" /><text x="300" y="636" font-family="Inter, Arial, sans-serif" font-size="12" fill="#7F8CA3" font-weight="500" text-anchor="start">08:48</text><rect x="372" y="622" width="81" height="24" rx="999" ry="999" fill="#4F7CFF" /><text x="412.5" y="638.0" font-family="Inter, Arial, sans-serif" font-size="11" fill="#FFFFFF" font-weight="600" text-anchor="middle">Corporate</text><rect x="942" y="622" width="67" height="24" rx="999" ry="999" fill="#2A2412" stroke="#F5B942" stroke-width="1" /><text x="975.5" y="638.0" font-family="Inter, Arial, sans-serif" font-size="11" fill="#F5B942" font-weight="600" text-anchor="middle">Среднее</text><text x="300" y="666" font-family="Inter, Arial, sans-serif" font-size="16" fill="#F3F6FC" font-weight="600" text-anchor="start">Сильные операционные показатели поддержали эмитента</text><text x="300" y="692" font-family="Inter, Arial, sans-serif" font-size="13" fill="#A8B3C7" font-weight="400" text-anchor="start">2–3 строки аналитического описания события, его контекста и краткой оценки влияния на наблюдаемые активы.</text><rect x="300" y="726" width="56" height="22" rx="999" ry="999" fill="#12192B" stroke="#25314D" stroke-width="1" /><text x="328.0" y="741.0" font-family="Inter, Arial, sans-serif" font-size="11" fill="#A8B3C7" font-weight="600" text-anchor="middle">SBER</text><rect x="280" y="772" width="760" height="148" rx="16" ry="16" fill="#161F33" stroke="#25314D" stroke-width="1" /><text x="300" y="800" font-family="Inter, Arial, sans-serif" font-size="12" fill="#7F8CA3" font-weight="500" text-anchor="start">07:55</text><rect x="372" y="786" width="101" height="24" rx="999" ry="999" fill="#F5B942" /><text x="422.5" y="802.0" font-family="Inter, Arial, sans-serif" font-size="11" fill="#FFFFFF" font-weight="600" text-anchor="middle">Geopolitical</text><rect x="942" y="786" width="67" height="24" rx="999" ry="999" fill="#2A1820" stroke="#F04D5E" stroke-width="1" /><text x="975.5" y="802.0" font-family="Inter, Arial, sans-serif" font-size="11" fill="#F04D5E" font-weight="600" text-anchor="middle">Высокое</text><text x="300" y="830" font-family="Inter, Arial, sans-serif" font-size="16" fill="#F3F6FC" font-weight="600" text-anchor="start">Рост внешней неопределённости повысил осторожность</text><text x="300" y="856" font-family="Inter, Arial, sans-serif" font-size="13" fill="#A8B3C7" font-weight="400" text-anchor="start">2–3 строки аналитического описания события, его контекста и краткой оценки влияния на наблюдаемые активы.</text><rect x="300" y="890" width="56" height="22" rx="999" ry="999" fill="#12192B" stroke="#25314D" stroke-width="1" /><text x="328.0" y="905.0" font-family="Inter, Arial, sans-serif" font-size="11" fill="#A8B3C7" font-weight="600" text-anchor="middle">IMOEX</text><rect x="362" y="890" width="56" height="22" rx="999" ry="999" fill="#12192B" stroke="#25314D" stroke-width="1" /><text x="390.0" y="905.0" font-family="Inter, Arial, sans-serif" font-size="11" fill="#A8B3C7" font-weight="600" text-anchor="middle">GAZP</text><rect x="1064" y="280" width="368" height="160" rx="16" ry="16" fill="#161F33" stroke="#25314D" stroke-width="1" /><text x="1084" y="310" font-family="Inter, Arial, sans-serif" font-size="18" fill="#F3F6FC" font-weight="600" text-anchor="start">Event Summary</text><text x="1084" y="324" font-family="Inter, Arial, sans-serif" font-size="12" fill="#7F8CA3" font-weight="600" text-anchor="start">Events today</text><text x="1412" y="324" font-family="Inter, Arial, sans-serif" font-size="13" fill="#4F7CFF" font-weight="700" text-anchor="end">14</text><text x="1084" y="352" font-family="Inter, Arial, sans-serif" font-size="12" fill="#7F8CA3" font-weight="600" text-anchor="start">Highest impact</text><text x="1412" y="352" font-family="Inter, Arial, sans-serif" font-size="13" fill="#37B6FF" font-weight="700" text-anchor="end">Macro</text><text x="1084" y="380" font-family="Inter, Arial, sans-serif" font-size="12" fill="#7F8CA3" font-weight="600" text-anchor="start">Most mentioned asset</text><text x="1412" y="380" font-family="Inter, Arial, sans-serif" font-size="13" fill="#18C37E" font-weight="700" text-anchor="end">SBER</text><text x="1084" y="408" font-family="Inter, Arial, sans-serif" font-size="12" fill="#7F8CA3" font-weight="600" text-anchor="start">Macro events</text><text x="1412" y="408" font-family="Inter, Arial, sans-serif" font-size="13" fill="#F5B942" font-weight="700" text-anchor="end">5</text><rect x="1064" y="464" width="368" height="180" rx="16" ry="16" fill="#161F33" stroke="#25314D" stroke-width="1" /><text x="1084" y="494" font-family="Inter, Arial, sans-serif" font-size="18" fill="#F3F6FC" font-weight="600" text-anchor="start">Heat block</text><rect x="1084" y="510" width="328" height="32" rx="10" ry="10" fill="#12192B" stroke="#25314D" stroke-width="1" /><text x="1100" y="531" font-family="Inter, Arial, sans-serif" font-size="12" fill="#F3F6FC" font-weight="600" text-anchor="start">SBER</text><text x="1392" y="531" font-family="Inter, Arial, sans-serif" font-size="12" fill="#A8B3C7" font-weight="400" text-anchor="end">4 events</text><rect x="1084" y="550" width="328" height="32" rx="10" ry="10" fill="#12192B" stroke="#25314D" stroke-width="1" /><text x="1100" y="571" font-family="Inter, Arial, sans-serif" font-size="12" fill="#F3F6FC" font-weight="600" text-anchor="start">BRENT</text><text x="1392" y="571" font-family="Inter, Arial, sans-serif" font-size="12" fill="#A8B3C7" font-weight="400" text-anchor="end">3 events</text><rect x="1084" y="590" width="328" height="32" rx="10" ry="10" fill="#12192B" stroke="#25314D" stroke-width="1" /><text x="1100" y="611" font-family="Inter, Arial, sans-serif" font-size="12" fill="#F3F6FC" font-weight="600" text-anchor="start">IMOEX</text><text x="1392" y="611" font-family="Inter, Arial, sans-serif" font-size="12" fill="#A8B3C7" font-weight="400" text-anchor="end">2 events</text><rect x="1084" y="630" width="328" height="32" rx="10" ry="10" fill="#12192B" stroke="#25314D" stroke-width="1" /><text x="1100" y="651" font-family="Inter, Arial, sans-serif" font-size="12" fill="#F3F6FC" font-weight="600" text-anchor="start">GAZP</text><text x="1392" y="651" font-family="Inter, Arial, sans-serif" font-size="12" fill="#A8B3C7" font-weight="400" text-anchor="end">2 events</text><rect x="1064" y="668" width="368" height="220" rx="16" ry="16" fill="#161F33" stroke="#25314D" stroke-width="1" /><text x="1084" y="698" font-family="Inter, Arial, sans-serif" font-size="18" fill="#F3F6FC" font-weight="600" text-anchor="start">Filter Summary</text><circle cx="1086" cy="710" r="4" fill="#4F7CFF" /><text x="1100" y="714" font-family="Inter, Arial, sans-serif" font-size="13" fill="#A8B3C7" font-weight="400" text-anchor="start">Type: all key categories</text><circle cx="1086" cy="742" r="4" fill="#4F7CFF" /><text x="1100" y="746" font-family="Inter, Arial, sans-serif" font-size="13" fill="#A8B3C7" font-weight="400" text-anchor="start">Asset: all tracked</text><circle cx="1086" cy="774" r="4" fill="#4F7CFF" /><text x="1100" y="778" font-family="Inter, Arial, sans-serif" font-size="13" fill="#A8B3C7" font-weight="400" text-anchor="start">Date range: 7 days</text><circle cx="1086" cy="806" r="4" fill="#4F7CFF" /><text x="1100" y="810" font-family="Inter, Arial, sans-serif" font-size="13" fill="#A8B3C7" font-weight="400" text-anchor="start">Impact: medium to high</text><circle cx="1086" cy="838" r="4" fill="#4F7CFF" /><text x="1100" y="842" font-family="Inter, Arial, sans-serif" font-size="13" fill="#A8B3C7" font-weight="400" text-anchor="start">Source: open feeds</text>
</svg>