<svg xmlns="http://www.w3.org/2000/svg" width="1600" height="1500" viewBox="0 0 1600 1500" fill="none">
<style>
.small { font-family: Inter, Arial, sans-serif; font-size: 12px; fill: #7F8CA3; }
</style>
<rect x="0" y="0" width="1600" height="1500" fill="#0B1020" /><text x="32" y="56" font-family="Inter, Arial, sans-serif" font-size="30" fill="#F3F6FC" font-weight="700" text-anchor="start">01_Components / Overview</text><text x="32" y="86" font-family="Inter, Arial, sans-serif" font-size="14" fill="#A8B3C7" font-weight="400" text-anchor="start">Core reusable components for the MRAP interface</text><text x="32" y="126" font-family="Inter, Arial, sans-serif" font-size="16" fill="#F3F6FC" font-weight="600" text-anchor="start">Sidebar / Default</text><rect x="0" y="0" width="248" height="1024" fill="#09101D" /><text x="24" y="46" font-family="Inter, Arial, sans-serif" font-size="24" fill="#F3F6FC" font-weight="700" text-anchor="start">MRAP</text><text x="24" y="66" font-family="Inter, Arial, sans-serif" font-size="11" fill="#7F8CA3" font-weight="500" text-anchor="start">Market Reaction Analytics Platform</text><rect x="16" y="112" width="216" height="44" rx="12" ry="12" fill="#1D2740" stroke="#4F7CFF" stroke-width="1" /><circle cx="34" cy="134" r="6" fill="#4F7CFF" /><text x="48" y="140" font-family="Inter, Arial, sans-serif" font-size="14" fill="#F3F6FC" font-weight="600" text-anchor="start">Панель обзора</text><rect x="16" y="164" width="216" height="44" rx="12" ry="12" fill="none" /><circle cx="34" cy="186" r="6" fill="#7F8CA3" /><text x="48" y="192" font-family="Inter, Arial, sans-serif" font-size="14" fill="#A8B3C7" font-weight="500" text-anchor="start">Активы</text><rect x="16" y="216" width="216" height="44" rx="12" ry="12" fill="none" /><circle cx="34" cy="238" r="6" fill="#7F8CA3" /><text x="48" y="244" font-family="Inter, Arial, sans-serif" font-size="14" fill="#A8B3C7" font-weight="500" text-anchor="start">Новости и события</text><rect x="16" y="268" width="216" height="44" rx="12" ry="12" fill="none" /><circle cx="34" cy="290" r="6" fill="#7F8CA3" /><text x="48" y="296" font-family="Inter, Arial, sans-serif" font-size="14" fill="#A8B3C7" font-weight="500" text-anchor="start">Прогнозы</text><rect x="16" y="320" width="216" height="44" rx="12" ry="12" fill="none" /><circle cx="34" cy="342" r="6" fill="#7F8CA3" /><text x="48" y="348" font-family="Inter, Arial, sans-serif" font-size="14" fill="#A8B3C7" font-weight="500" text-anchor="start">История</text><rect x="16" y="372" width="216" height="44" rx="12" ry="12" fill="none" /><circle cx="34" cy="394" r="6" fill="#7F8CA3" /><text x="48" y="400" font-family="Inter, Arial, sans-serif" font-size="14" fill="#A8B3C7" font-weight="500" text-anchor="start">Настройки</text><rect x="16" y="936" width="216" height="56" rx="14" ry="14" fill="#161F33" stroke="#25314D" stroke-width="1" /><circle cx="42" cy="964" r="14" fill="#4F7CFF" opacity="0.9" /><text x="64" y="968" font-family="Inter, Arial, sans-serif" font-size="13" fill="#F3F6FC" font-weight="600" text-anchor="start">Никита Стоянов</text><text x="64" y="986" font-family="Inter, Arial, sans-serif" font-size="12" fill="#7F8CA3" font-weight="400" text-anchor="start">Выход</text><text x="304" y="126" font-family="Inter, Arial, sans-serif" font-size="16" fill="#F3F6FC" font-weight="600" text-anchor="start">Topbar / Default</text><rect x="304" y="142" width="1152" height="72" fill="none" /><text x="304" y="186" font-family="Inter, Arial, sans-serif" font-size="24" fill="#F3F6FC" font-weight="700" text-anchor="start">Панель обзора</text><rect x="760" y="156" width="320" height="44" rx="12" ry="12" fill="#12192B" stroke="#25314D" stroke-width="1" /><circle cx="780" cy="178.0" r="7" fill="none" stroke="#7F8CA3" stroke-width="1.5" /><line x1="785" y1="183.0" x2="791" y2="189.0" stroke="#7F8CA3" stroke-width="1.5" /><text x="800" y="183.0" font-family="Inter, Arial, sans-serif" font-size="14" fill="#7F8CA3" font-weight="400" text-anchor="start">Поиск по активам, новостям, прогнозам</text><rect x="1104" y="164" width="139" height="28" rx="999" ry="999" fill="#132B22" /><text x="1173.5" y="182.0" font-family="Inter, Arial, sans-serif" font-size="12" fill="#18C37E" font-weight="600" text-anchor="middle">Данные обновлены</text><rect x="1248" y="156" width="44" height="44" rx="12" ry="12" fill="#1A243A" stroke="#2B3A5B" stroke-width="1" /><text x="1270" y="184" font-family="Inter, Arial, sans-serif" font-size="18" fill="#A8B3C7" font-weight="600" text-anchor="middle">↻</text><rect x="1296" y="156" width="160" height="44" rx="12" ry="12" fill="#161F33" stroke="#25314D" stroke-width="1" /><circle cx="1322" cy="178" r="10" fill="#4F7CFF" /><text x="1342" y="183" font-family="Inter, Arial, sans-serif" font-size="13" fill="#F3F6FC" font-weight="600" text-anchor="start">Никита</text><text x="1422" y="183" font-family="Inter, Arial, sans-serif" font-size="12" fill="#A8B3C7" font-weight="600" text-anchor="start">▾</text><text x="304" y="250" font-family="Inter, Arial, sans-serif" font-size="16" fill="#F3F6FC" font-weight="600" text-anchor="start">Buttons / Input / Chips</text><rect x="304" y="274" width="160" height="44" rx="12" ry="12" fill="#4F7CFF" /><text x="384.0" y="301.0" font-family="Inter, Arial, sans-serif" font-size="14" fill="#FFFFFF" font-weight="600" text-anchor="middle">Сформировать прогноз</text><rect x="480" y="274" width="150" height="44" rx="12" ry="12" fill="#1A243A" stroke="#2B3A5B" stroke-width="1" /><text x="555.0" y="301.0" font-family="Inter, Arial, sans-serif" font-size="14" fill="#DCE6F7" font-weight="600" text-anchor="middle">Обновить данные</text><rect x="646" y="274" width="300" height="44" rx="12" ry="12" fill="#12192B" stroke="#25314D" stroke-width="1" /><circle cx="666" cy="296.0" r="7" fill="none" stroke="#7F8CA3" stroke-width="1.5" /><line x1="671" y1="301.0" x2="677" y2="307.0" stroke="#7F8CA3" stroke-width="1.5" /><text x="686" y="301.0" font-family="Inter, Arial, sans-serif" font-size="14" fill="#7F8CA3" font-weight="400" text-anchor="start">Поиск по активам</text><rect x="970" y="282" width="72" height="28" rx="999" ry="999" fill="#18C37E" /><text x="1006.0" y="300.0" font-family="Inter, Arial, sans-serif" font-size="12" fill="#fff" font-weight="600" text-anchor="middle">Bullish</text><rect x="1050" y="282" width="72" height="28" rx="999" ry="999" fill="#F04D5E" /><text x="1086.0" y="300.0" font-family="Inter, Arial, sans-serif" font-size="12" fill="#fff" font-weight="600" text-anchor="middle">Bearish</text><rect x="1130" y="282" width="57" height="28" rx="999" ry="999" fill="#37B6FF" /><text x="1158.5" y="300.0" font-family="Inter, Arial, sans-serif" font-size="12" fill="#fff" font-weight="600" text-anchor="middle">Macro</text><rect x="1195" y="282" width="131" height="28" rx="999" ry="999" fill="#12192B" stroke="#25314D" stroke-width="1" /><text x="1260.5" y="300.0" font-family="Inter, Arial, sans-serif" font-size="12" fill="#A8B3C7" font-weight="600" text-anchor="middle">High confidence</text><text x="304" y="372" font-family="Inter, Arial, sans-serif" font-size="16" fill="#F3F6FC" font-weight="600" text-anchor="start">Card / KPI</text><rect x="304" y="394" width="268" height="140" rx="16" ry="16" fill="#161F33" stroke="#25314D" stroke-width="1" /><text x="324" y="436" font-family="Inter, Arial, sans-serif" font-size="14" fill="#A8B3C7" font-weight="600" text-anchor="start">Активных прогнозов</text><text x="324" y="478" font-family="Inter, Arial, sans-serif" font-size="28" fill="#F3F6FC" font-weight="700" text-anchor="start">24</text><line x1="324" y1="494" x2="552" y2="494" stroke="#25314D" stroke-width="1" opacity="0.5" /><text x="324" y="518" font-family="Inter, Arial, sans-serif" font-size="12" fill="#7F8CA3" font-weight="500" text-anchor="start">+6 за последние 24 часа</text><rect x="532" y="416" width="12" height="12" rx="4" ry="4" fill="#4F7CFF" /><text x="596" y="372" font-family="Inter, Arial, sans-serif" font-size="16" fill="#F3F6FC" font-weight="600" text-anchor="start">Card / Summary / Large</text><rect x="596" y="394" width="560" height="220" rx="16" ry="16" fill="#161F33" stroke="#25314D" stroke-width="1" /><text x="616" y="424" font-family="Inter, Arial, sans-serif" font-size="18" fill="#F3F6FC" font-weight="600" text-anchor="start">Market Regime</text><text x="616" y="478" font-family="Inter, Arial, sans-serif" font-size="44" fill="#F3F6FC" font-weight="700" text-anchor="start">67 / 100</text><rect x="834" y="446" width="131" height="28" rx="999" ry="999" fill="#2A2412" stroke="#F5B942" stroke-width="1" /><text x="899.5" y="464.0" font-family="Inter, Arial, sans-serif" font-size="12" fill="#F5B942" font-weight="600" text-anchor="middle">Elevated stress</text><rect x="616" y="518" width="520" height="16" rx="999" ry="999" fill="#12192B" stroke="#25314D" stroke-width="1" /><rect x="616" y="518" width="360" height="16" rx="999" ry="999" fill="#F5B942" /><rect x="616" y="550" width="121" height="40" rx="12" ry="12" fill="#12192B" stroke="#25314D" stroke-width="1" /><text x="628" y="570" font-family="Inter, Arial, sans-serif" font-size="11" fill="#7F8CA3" font-weight="600" text-anchor="start">Volatility</text><text x="725" y="570" font-family="Inter, Arial, sans-serif" font-size="12" fill="#F5B942" font-weight="700" text-anchor="end">0.68</text><rect x="749" y="550" width="121" height="40" rx="12" ry="12" fill="#12192B" stroke="#25314D" stroke-width="1" /><text x="761" y="570" font-family="Inter, Arial, sans-serif" font-size="11" fill="#7F8CA3" font-weight="600" text-anchor="start">Breadth</text><text x="858" y="570" font-family="Inter, Arial, sans-serif" font-size="12" fill="#4F7CFF" font-weight="700" text-anchor="end">0.54</text><rect x="882" y="550" width="121" height="40" rx="12" ry="12" fill="#12192B" stroke="#25314D" stroke-width="1" /><text x="894" y="570" font-family="Inter, Arial, sans-serif" font-size="11" fill="#7F8CA3" font-weight="600" text-anchor="start">News stress</text><text x="991" y="570" font-family="Inter, Arial, sans-serif" font-size="12" fill="#F04D5E" font-weight="700" text-anchor="end">0.72</text><rect x="1015" y="550" width="121" height="40" rx="12" ry="12" fill="#12192B" stroke="#25314D" stroke-width="1" /><text x="1027" y="570" font-family="Inter, Arial, sans-serif" font-size="11" fill="#7F8CA3" font-weight="600" text-anchor="start">Commodity</text><text x="1124" y="570" font-family="Inter, Arial, sans-serif" font-size="12" fill="#8B7CFF" font-weight="700" text-anchor="end">0.41</text><text x="1180" y="372" font-family="Inter, Arial, sans-serif" font-size="16" fill="#F3F6FC" font-weight="600" text-anchor="start">Card / Asset</text><rect x="1180" y="394" width="360" height="220" rx="14" ry="14" fill="#12192B" stroke="#25314D" stroke-width="1" /><text x="1196" y="422" font-family="Inter, Arial, sans-serif" font-size="16" fill="#F3F6FC" font-weight="700" text-anchor="start">IMOEX</text><text x="1524" y="422" font-family="Inter, Arial, sans-serif" font-size="13" fill="#18C37E" font-weight="700" text-anchor="end">+1.8%</text><text x="1196" y="440" font-family="Inter, Arial, sans-serif" font-size="12" fill="#7F8CA3" font-weight="500" text-anchor="start">Индекс Московской биржи</text><text x="1196" y="470" font-family="Inter, Arial, sans-serif" font-size="24" fill="#F3F6FC" font-weight="700" text-anchor="start">3 215</text><polygon points="1196,500 1196.0,495.7 1217.9,500.0 1239.7,486.6 1261.6,485.9 1283.5,482.7 1305.3,499.2 1327.2,484.9 1349.1,486.1 1370.9,498.5 1392.8,485.0 1414.7,495.1 1436.5,486.6 1458.4,486.0 1480.3,495.0 1502.1,478.0 1524.0,495.0 1524,500" fill="#18C37E" opacity="0.08" /><polyline points="1196.0,495.7 1217.9,500.0 1239.7,486.6 1261.6,485.9 1283.5,482.7 1305.3,499.2 1327.2,484.9 1349.1,486.1 1370.9,498.5 1392.8,485.0 1414.7,495.1 1436.5,486.6 1458.4,486.0 1480.3,495.0 1502.1,478.0 1524.0,495.0" fill="none" stroke="#18C37E" stroke-width="2" stroke-linecap="round" stroke-linejoin="round" /><rect x="1196" y="580" width="67" height="24" rx="999" ry="999" fill="#1D2740" stroke="#18C37E" stroke-width="1" /><text x="1229.5" y="596.0" font-family="Inter, Arial, sans-serif" font-size="11" fill="#18C37E" font-weight="600" text-anchor="middle">Bullish</text><rect x="1271" y="580" width="56" height="24" rx="999" ry="999" fill="#12192B" stroke="#25314D" stroke-width="1" /><text x="1299.0" y="596.0" font-family="Inter, Arial, sans-serif" font-size="11" fill="#A8B3C7" font-weight="600" text-anchor="middle">High</text><text x="304" y="578" font-family="Inter, Arial, sans-serif" font-size="16" fill="#F3F6FC" font-weight="600" text-anchor="start">TableRow / Forecast</text><rect x="304" y="600" width="1152" height="48" rx="12" ry="12" fill="#12192B" stroke="#25314D" stroke-width="1" /><text x="324" y="630" font-family="Inter, Arial, sans-serif" font-size="12" fill="#7F8CA3" font-weight="600" text-anchor="start">Актив</text><text x="484" y="630" font-family="Inter, Arial, sans-serif" font-size="12" fill="#7F8CA3" font-weight="600" text-anchor="start">Направление</text><text x="604" y="630" font-family="Inter, Arial, sans-serif" font-size="12" fill="#7F8CA3" font-weight="600" text-anchor="start">Сила</text><text x="724" y="630" font-family="Inter, Arial, sans-serif" font-size="12" fill="#7F8CA3" font-weight="600" text-anchor="start">Уверенность</text><text x="844" y="630" font-family="Inter, Arial, sans-serif" font-size="12" fill="#7F8CA3" font-weight="600" text-anchor="start">Краткое объяснение</text><text x="1236" y="630" font-family="Inter, Arial, sans-serif" font-size="12" fill="#7F8CA3" font-weight="600" text-anchor="start">Время</text><text x="1416.0" y="630" font-family="Inter, Arial, sans-serif" font-size="12" fill="#7F8CA3" font-weight="600" text-anchor="middle">Действие</text><rect x="304" y="656" width="1152" height="72" rx="12" ry="12" fill="#161F33" stroke="#25314D" stroke-width="1" /><text x="324" y="700" font-family="Inter, Arial, sans-serif" font-size="13" fill="#F3F6FC" font-weight="600" text-anchor="start">SBER</text><text x="484" y="700" font-family="Inter, Arial, sans-serif" font-size="13" fill="#18C37E" font-weight="700" text-anchor="start">Bullish</text><line x1="464" y1="672" x2="464" y2="712" stroke="#25314D" stroke-width="1" opacity="0.35" /><text x="604" y="700" font-family="Inter, Arial, sans-serif" font-size="13" fill="#A8B3C7" font-weight="500" text-anchor="start">Strong</text><line x1="584" y1="672" x2="584" y2="712" stroke="#25314D" stroke-width="1" opacity="0.35" /><text x="724" y="700" font-family="Inter, Arial, sans-serif" font-size="13" fill="#A8B3C7" font-weight="500" text-anchor="start">High</text><line x1="704" y1="672" x2="704" y2="712" stroke="#25314D" stroke-width="1" opacity="0.35" /><text x="844" y="700" font-family="Inter, Arial, sans-serif" font-size="13" fill="#A8B3C7" font-weight="400" text-anchor="start">Рост поддерживается позитивным новостным фоном и умеренным режимом риска.</text><line x1="824" y1="672" x2="824" y2="712" stroke="#25314D" stroke-width="1" opacity="0.35" /><text x="1236" y="700" font-family="Inter, Arial, sans-serif" font-size="13" fill="#7F8CA3" font-weight="500" text-anchor="start">10:24</text><line x1="1216" y1="672" x2="1216" y2="712" stroke="#25314D" stroke-width="1" opacity="0.35" /><text x="1416.0" y="700" font-family="Inter, Arial, sans-serif" font-size="13" fill="#4F7CFF" font-weight="600" text-anchor="middle">Открыть</text><line x1="1376" y1="672" x2="1376" y2="712" stroke="#25314D" stroke-width="1" opacity="0.35" /><rect x="304" y="736" width="1152" height="72" rx="12" ry="12" fill="#161F33" stroke="#25314D" stroke-width="1" /><text x="324" y="780" font-family="Inter, Arial, sans-serif" font-size="13" fill="#F3F6FC" font-weight="600" text-anchor="start">BRENT</text><text x="484" y="780" font-family="Inter, Arial, sans-serif" font-size="13" fill="#F04D5E" font-weight="700" text-anchor="start">Bearish</text><line x1="464" y1="752" x2="464" y2="792" stroke="#25314D" stroke-width="1" opacity="0.35" /><text x="604" y="780" font-family="Inter, Arial, sans-serif" font-size="13" fill="#A8B3C7" font-weight="500" text-anchor="start">Medium</text><line x1="584" y1="752" x2="584" y2="792" stroke="#25314D" stroke-width="1" opacity="0.35" /><text x="724" y="780" font-family="Inter, Arial, sans-serif" font-size="13" fill="#A8B3C7" font-weight="500" text-anchor="start">Medium</text><line x1="704" y1="752" x2="704" y2="792" stroke="#25314D" stroke-width="1" opacity="0.35" /><text x="844" y="780" font-family="Inter, Arial, sans-serif" font-size="13" fill="#A8B3C7" font-weight="400" text-anchor="start">Давление усиливается из-за роста запасов и ухудшения внешнего фона.</text><line x1="824" y1="752" x2="824" y2="792" stroke="#25314D" stroke-width="1" opacity="0.35" /><text x="1236" y="780" font-family="Inter, Arial, sans-serif" font-size="13" fill="#7F8CA3" font-weight="500" text-anchor="start">09:52</text><line x1="1216" y1="752" x2="1216" y2="792" stroke="#25314D" stroke-width="1" opacity="0.35" /><text x="1416.0" y="780" font-family="Inter, Arial, sans-serif" font-size="13" fill="#4F7CFF" font-weight="600" text-anchor="middle">Открыть</text><line x1="1376" y1="752" x2="1376" y2="792" stroke="#25314D" stroke-width="1" opacity="0.35" /><text x="304" y="860" font-family="Inter, Arial, sans-serif" font-size="16" fill="#F3F6FC" font-weight="600" text-anchor="start">Card / Event</text><rect x="304" y="882" width="760" height="148" rx="16" ry="16" fill="#161F33" stroke="#25314D" stroke-width="1" /><text x="324" y="910" font-family="Inter, Arial, sans-serif" font-size="12" fill="#7F8CA3" font-weight="500" text-anchor="start">10:24</text><rect x="396" y="896" width="56" height="24" rx="999" ry="999" fill="#37B6FF" /><text x="424.0" y="912.0" font-family="Inter, Arial, sans-serif" font-size="11" fill="#FFFFFF" font-weight="600" text-anchor="middle">Macro</text><rect x="966" y="896" width="67" height="24" rx="999" ry="999" fill="#2A1820" stroke="#F04D5E" stroke-width="1" /><text x="999.5" y="912.0" font-family="Inter, Arial, sans-serif" font-size="11" fill="#F04D5E" font-weight="600" text-anchor="middle">Высокое</text><text x="324" y="940" font-family="Inter, Arial, sans-serif" font-size="16" fill="#F3F6FC" font-weight="600" text-anchor="start">Рынок позитивно отреагировал на публикацию макроданных</text><text x="324" y="966" font-family="Inter, Arial, sans-serif" font-size="13" fill="#A8B3C7" font-weight="400" text-anchor="start">Снижение внешнего напряжения и стабилизация сырьевого блока повысили спрос на риск.</text><rect x="324" y="1000" width="56" height="22" rx="999" ry="999" fill="#12192B" stroke="#25314D" stroke-width="1" /><text x="352.0" y="1015.0" font-family="Inter, Arial, sans-serif" font-size="11" fill="#A8B3C7" font-weight="600" text-anchor="middle">IMOEX</text><rect x="386" y="1000" width="56" height="22" rx="999" ry="999" fill="#12192B" stroke="#25314D" stroke-width="1" /><text x="414.0" y="1015.0" font-family="Inter, Arial, sans-serif" font-size="11" fill="#A8B3C7" font-weight="600" text-anchor="middle">SBER</text><rect x="448" y="1000" width="56" height="22" rx="999" ry="999" fill="#12192B" stroke="#25314D" stroke-width="1" /><text x="476.0" y="1015.0" font-family="Inter, Arial, sans-serif" font-size="11" fill="#A8B3C7" font-weight="600" text-anchor="middle">LKOH</text><text x="1096" y="860" font-family="Inter, Arial, sans-serif" font-size="16" fill="#F3F6FC" font-weight="600" text-anchor="start">Card / Asset / Full</text><rect x="1096" y="882" width="360" height="220" rx="16" ry="16" fill="#161F33" stroke="#25314D" stroke-width="1" /><text x="1116" y="910" font-family="Inter, Arial, sans-serif" font-size="26" fill="#F3F6FC" font-weight="700" text-anchor="start">GAZP</text><rect x="1278" y="892" width="60" height="24" rx="999" ry="999" fill="#12192B" stroke="#25314D" stroke-width="1" /><text x="1308.0" y="908.0" font-family="Inter, Arial, sans-serif" font-size="11" fill="#A8B3C7" font-weight="600" text-anchor="middle">Energy</text><text x="1116" y="944" font-family="Inter, Arial, sans-serif" font-size="13" fill="#7F8CA3" font-weight="400" text-anchor="start">Газпром</text><text x="1116" y="980" font-family="Inter, Arial, sans-serif" font-size="28" fill="#F3F6FC" font-weight="700" text-anchor="start">172.40 ₽</text><text x="1430" y="980" font-family="Inter, Arial, sans-serif" font-size="14" fill="#F04D5E" font-weight="700" text-anchor="end">-0.7%</text><line x1="1116" y1="996" x2="1436" y2="996" stroke="#25314D" stroke-width="1" opacity="0.5" /><text x="1116" y="1026" font-family="Inter, Arial, sans-serif" font-size="12" fill="#7F8CA3" font-weight="400" text-anchor="start">RSI</text><text x="1236" y="1026" font-family="Inter, Arial, sans-serif" font-size="12" fill="#F3F6FC" font-weight="600" text-anchor="end">56</text><text x="1276" y="1026" font-family="Inter, Arial, sans-serif" font-size="12" fill="#7F8CA3" font-weight="400" text-anchor="start">Volatility</text><text x="1396" y="1026" font-family="Inter, Arial, sans-serif" font-size="12" fill="#F3F6FC" font-weight="600" text-anchor="end">1.24</text><text x="1116" y="1054" font-family="Inter, Arial, sans-serif" font-size="12" fill="#7F8CA3" font-weight="400" text-anchor="start">Trend</text><text x="1236" y="1054" font-family="Inter, Arial, sans-serif" font-size="12" fill="#F3F6FC" font-weight="600" text-anchor="end">Up</text><text x="1276" y="1054" font-family="Inter, Arial, sans-serif" font-size="12" fill="#7F8CA3" font-weight="400" text-anchor="start">Confidence</text><text x="1396" y="1054" font-family="Inter, Arial, sans-serif" font-size="12" fill="#F3F6FC" font-weight="600" text-anchor="end">Medium</text><rect x="1116" y="1060" width="120" height="36" rx="12" ry="12" fill="#1A243A" stroke="#2B3A5B" stroke-width="1" /><text x="1176.0" y="1083.0" font-family="Inter, Arial, sans-serif" font-size="14" fill="#DCE6F7" font-weight="600" text-anchor="middle">Открыть</text>
</svg>