<svg xmlns="http://www.w3.org/2000/svg" width="1440" height="900" viewBox="0 0 1440 900" fill="none">
<style>
.small { font-family: Inter, Arial, sans-serif; font-size: 12px; fill: #7F8CA3; }
</style>
<rect x="0" y="0" width="1440" height="900" fill="#0B1020" /><text x="32" y="56" font-family="Inter, Arial, sans-serif" font-size="28" fill="#F3F6FC" font-weight="700" text-anchor="start">03_States / UI States</text><text x="32" y="86" font-family="Inter, Arial, sans-serif" font-size="14" fill="#A8B3C7" font-weight="400" text-anchor="start">Hover, loading, empty, error and expanded interaction examples</text><text x="32" y="126" font-family="Inter, Arial, sans-serif" font-size="16" fill="#F3F6FC" font-weight="600" text-anchor="start">Hover states</text><rect x="32" y="146" width="260" height="180" rx="14" ry="14" fill="#12192B" stroke="#25314D" stroke-width="1" /><text x="48" y="174" font-family="Inter, Arial, sans-serif" font-size="16" fill="#F3F6FC" font-weight="700" text-anchor="start">IMOEX</text><text x="276" y="174" font-family="Inter, Arial, sans-serif" font-size="13" fill="#18C37E" font-weight="700" text-anchor="end">+1.8%</text><text x="48" y="192" font-family="Inter, Arial, sans-serif" font-size="12" fill="#7F8CA3" font-weight="500" text-anchor="start">Индекс Мосбиржи</text><text x="48" y="222" font-family="Inter, Arial, sans-serif" font-size="24" fill="#F3F6FC" font-weight="700" text-anchor="start">3 215</text><polygon points="48,252 48.0,246.1 63.2,249.7 78.4,244.8 93.6,246.5 108.8,242.0 124.0,243.5 139.2,247.6 154.4,252.0 169.6,237.2 184.8,235.9 200.0,236.0 215.2,246.3 230.4,250.5 245.6,242.9 260.8,243.2 276.0,230.0 276,252" fill="#18C37E" opacity="0.08" /><polyline points="48.0,246.1 63.2,249.7 78.4,244.8 93.6,246.5 108.8,242.0 124.0,243.5 139.2,247.6 154.4,252.0 169.6,237.2 184.8,235.9 200.0,236.0 215.2,246.3 230.4,250.5 245.6,242.9 260.8,243.2 276.0,230.0" fill="none" stroke="#18C37E" stroke-width="2" stroke-linecap="round" stroke-linejoin="round" /><rect x="48" y="292" width="67" height="24" rx="999" ry="999" fill="#1D2740" stroke="#18C37E" stroke-width="1" /><text x="81.5" y="308.0" font-family="Inter, Arial, sans-serif" font-size="11" fill="#18C37E" font-weight="600" text-anchor="middle">Bullish</text><rect x="123" y="292" width="56" height="24" rx="999" ry="999" fill="#12192B" stroke="#25314D" stroke-width="1" /><text x="151.0" y="308.0" font-family="Inter, Arial, sans-serif" font-size="11" fill="#A8B3C7" font-weight="600" text-anchor="middle">High</text><text x="120" y="338" font-family="Inter, Arial, sans-serif" font-size="12" fill="#7F8CA3" font-weight="400" text-anchor="middle">Default</text><rect x="328" y="146" width="260" height="180" rx="16" ry="16" fill="#1D2740" stroke="#4F7CFF" stroke-width="1" /><rect x="328" y="146" width="260" height="180" rx="14" ry="14" fill="#12192B" stroke="#25314D" stroke-width="1" /><text x="344" y="174" font-family="Inter, Arial, sans-serif" font-size="16" fill="#F3F6FC" font-weight="700" text-anchor="start">IMOEX</text><text x="572" y="174" font-family="Inter, Arial, sans-serif" font-size="13" fill="#18C37E" font-weight="700" text-anchor="end">+1.8%</text><text x="344" y="192" font-family="Inter, Arial, sans-serif" font-size="12" fill="#7F8CA3" font-weight="500" text-anchor="start">Индекс Мосбиржи</text><text x="344" y="222" font-family="Inter, Arial, sans-serif" font-size="24" fill="#F3F6FC" font-weight="700" text-anchor="start">3 215</text><polygon points="344,252 344.0,245.2 359.2,236.3 374.4,232.4 389.6,242.6 404.8,244.6 420.0,230.0 435.2,241.4 450.4,251.3 465.6,244.3 480.8,232.6 496.0,235.9 511.2,252.0 526.4,246.2 541.6,239.6 556.8,247.4 572.0,240.7 572,252" fill="#18C37E" opacity="0.08" /><polyline points="344.0,245.2 359.2,236.3 374.4,232.4 389.6,242.6 404.8,244.6 420.0,230.0 435.2,241.4 450.4,251.3 465.6,244.3 480.8,232.6 496.0,235.9 511.2,252.0 526.4,246.2 541.6,239.6 556.8,247.4 572.0,240.7" fill="none" stroke="#18C37E" stroke-width="2" stroke-linecap="round" stroke-linejoin="round" /><rect x="344" y="292" width="67" height="24" rx="999" ry="999" fill="#1D2740" stroke="#18C37E" stroke-width="1" /><text x="377.5" y="308.0" font-family="Inter, Arial, sans-serif" font-size="11" fill="#18C37E" font-weight="600" text-anchor="middle">Bullish</text><rect x="419" y="292" width="56" height="24" rx="999" ry="999" fill="#12192B" stroke="#25314D" stroke-width="1" /><text x="447.0" y="308.0" font-family="Inter, Arial, sans-serif" font-size="11" fill="#A8B3C7" font-weight="600" text-anchor="middle">High</text><text x="458" y="338" font-family="Inter, Arial, sans-serif" font-size="12" fill="#7F8CA3" font-weight="400" text-anchor="middle">Hover</text><rect x="640" y="210" width="180" height="44" rx="12" ry="12" fill="#4F7CFF" /><text x="730.0" y="237.0" font-family="Inter, Arial, sans-serif" font-size="14" fill="#FFFFFF" font-weight="600" text-anchor="middle">Generate forecast</text><text x="730" y="270" font-family="Inter, Arial, sans-serif" font-size="12" fill="#7F8CA3" font-weight="400" text-anchor="middle">Default</text><rect x="868" y="210" width="180" height="44" rx="12" ry="12" fill="#6E92FF" /><text x="958" y="238" font-family="Inter, Arial, sans-serif" font-size="14" fill="#fff" font-weight="600" text-anchor="middle">Generate forecast</text><text x="958" y="270" font-family="Inter, Arial, sans-serif" font-size="12" fill="#7F8CA3" font-weight="400" text-anchor="middle">Hover</text><rect x="1120" y="146" width="248" height="220" fill="#09101D" /><text x="1140" y="176" font-family="Inter, Arial, sans-serif" font-size="16" fill="#F3F6FC" font-weight="600" text-anchor="start">Sidebar item</text><rect x="1136" y="208" width="216" height="44" rx="12" ry="12" fill="none" /><circle cx="1154" cy="230" r="6" fill="#7F8CA3" /><text x="1168" y="236" font-family="Inter, Arial, sans-serif" font-size="14" fill="#A8B3C7" font-weight="500" text-anchor="start">Активы</text><rect x="1136" y="268" width="216" height="44" rx="12" ry="12" fill="#1D2740" stroke="#4F7CFF" stroke-width="1" /><circle cx="1154" cy="290" r="6" fill="#4F7CFF" /><text x="1168" y="296" font-family="Inter, Arial, sans-serif" font-size="14" fill="#F3F6FC" font-weight="600" text-anchor="start">Активы</text><text x="1244" y="338" font-family="Inter, Arial, sans-serif" font-size="12" fill="#7F8CA3" font-weight="400" text-anchor="middle">Default / Active</text><text x="32" y="410" font-family="Inter, Arial, sans-serif" font-size="16" fill="#F3F6FC" font-weight="600" text-anchor="start">Loading states</text><rect x="32" y="430" width="1152" height="360" rx="16" ry="16" fill="#161F33" stroke="#25314D" stroke-width="1" /><text x="52" y="460" font-family="Inter, Arial, sans-serif" font-size="18" fill="#F3F6FC" font-weight="600" text-anchor="start">Dashboard skeleton</text><rect x="52" y="478" width="564" height="180" rx="16" ry="16" fill="#12192B" stroke="#25314D" stroke-width="1" opacity="0.9" /><rect x="72" y="498" width="524" height="12" rx="6" ry="6" fill="#23304B" /><rect x="72" y="520" width="464" height="12" rx="6" ry="6" fill="#23304B" /><rect x="72" y="542" width="404" height="12" rx="6" ry="6" fill="#23304B" /><rect x="640" y="478" width="268" height="180" rx="16" ry="16" fill="#12192B" stroke="#25314D" stroke-width="1" opacity="0.9" /><rect x="660" y="498" width="228" height="12" rx="6" ry="6" fill="#23304B" /><rect x="660" y="520" width="168" height="12" rx="6" ry="6" fill="#23304B" /><rect x="660" y="542" width="108" height="12" rx="6" ry="6" fill="#23304B" /><rect x="932" y="478" width="232" height="180" rx="16" ry="16" fill="#12192B" stroke="#25314D" stroke-width="1" opacity="0.9" /><rect x="952" y="498" width="192" height="12" rx="6" ry="6" fill="#23304B" /><rect x="952" y="520" width="132" height="12" rx="6" ry="6" fill="#23304B" /><rect x="952" y="542" width="80" height="12" rx="6" ry="6" fill="#23304B" /><rect x="52" y="678" width="360" height="80" rx="16" ry="16" fill="#12192B" stroke="#25314D" stroke-width="1" opacity="0.9" /><rect x="72" y="698" width="320" height="12" rx="6" ry="6" fill="#23304B" /><rect x="72" y="720" width="260" height="12" rx="6" ry="6" fill="#23304B" /><rect x="72" y="742" width="200" height="12" rx="6" ry="6" fill="#23304B" /><rect x="432" y="678" width="360" height="80" rx="16" ry="16" fill="#12192B" stroke="#25314D" stroke-width="1" opacity="0.9" /><rect x="452" y="698" width="320" height="12" rx="6" ry="6" fill="#23304B" /><rect x="452" y="720" width="260" height="12" rx="6" ry="6" fill="#23304B" /><rect x="452" y="742" width="200" height="12" rx="6" ry="6" fill="#23304B" /><rect x="812" y="678" width="352" height="80" rx="16" ry="16" fill="#12192B" stroke="#25314D" stroke-width="1" opacity="0.9" /><rect x="832" y="698" width="312" height="12" rx="6" ry="6" fill="#23304B" /><rect x="832" y="720" width="252" height="12" rx="6" ry="6" fill="#23304B" /><rect x="832" y="742" width="192" height="12" rx="6" ry="6" fill="#23304B" /><text x="1208" y="410" font-family="Inter, Arial, sans-serif" font-size="16" fill="#F3F6FC" font-weight="600" text-anchor="start">Empty / Error</text><rect x="1208" y="430" width="200" height="160" rx="16" ry="16" fill="#161F33" stroke="#25314D" stroke-width="1" /><circle cx="1308" cy="470" r="18" fill="#1D2740" stroke="#25314D" stroke-width="1" /><text x="1308" y="476" font-family="Inter, Arial, sans-serif" font-size="20" fill="#A8B3C7" font-weight="700" text-anchor="middle">∅</text><text x="1308" y="514" font-family="Inter, Arial, sans-serif" font-size="14" fill="#F3F6FC" font-weight="600" text-anchor="middle">No forecasts yet</text><text x="1308" y="536" font-family="Inter, Arial, sans-serif" font-size="12" fill="#7F8CA3" font-weight="400" text-anchor="middle">Generate the first forecast</text><rect x="1208" y="610" width="200" height="64" rx="12" ry="12" fill="#2A1820" stroke="#F04D5E" stroke-width="1" /><text x="1224" y="648" font-family="Inter, Arial, sans-serif" font-size="13" fill="#FFD9DD" font-weight="600" text-anchor="start">Data fetch failed. Retry.</text><text x="1208" y="720" font-family="Inter, Arial, sans-serif" font-size="16" fill="#F3F6FC" font-weight="600" text-anchor="start">Expanded row</text><rect x="1208" y="740" width="200" height="120" rx="16" ry="16" fill="#161F33" stroke="#25314D" stroke-width="1" /><text x="1224" y="768" font-family="Inter, Arial, sans-serif" font-size="14" fill="#F3F6FC" font-weight="700" text-anchor="start">SBER</text><text x="1272" y="768" font-family="Inter, Arial, sans-serif" font-size="13" fill="#18C37E" font-weight="700" text-anchor="start">Bullish</text><line x1="1224" y1="780" x2="1392" y2="780" stroke="#25314D" stroke-width="1" opacity="0.5" /><text x="1224" y="806" font-family="Inter, Arial, sans-serif" font-size="12" fill="#A8B3C7" font-weight="400" text-anchor="start">Full explanation and</text><text x="1224" y="824" font-family="Inter, Arial, sans-serif" font-size="12" fill="#A8B3C7" font-weight="400" text-anchor="start">factor contributions</text>
</svg>