<svg xmlns="http://www.w3.org/2000/svg" width="1440" height="900" viewBox="0 0 1440 900" fill="none">
<style>
.small { font-family: Inter, Arial, sans-serif; font-size: 12px; fill: #7F8CA3; }
</style>
<rect x="0" y="0" width="1440" height="900" fill="#0B1020" /><text x="32" y="56" font-family="Inter, Arial, sans-serif" font-size="28" fill="#F3F6FC" font-weight="700" text-anchor="start">00_Foundations / Color System</text><text x="32" y="86" font-family="Inter, Arial, sans-serif" font-size="14" fill="#A8B3C7" font-weight="400" text-anchor="start">Dark-first palette for Market Reaction Analytics Platform</text><rect x="32" y="120" width="440" height="240" rx="16" ry="16" fill="#161F33" stroke="#25314D" stroke-width="1" /><text x="52" y="150" font-family="Inter, Arial, sans-serif" font-size="18" fill="#F3F6FC" font-weight="600" text-anchor="start">Primary Palette</text><rect x="488" y="120" width="440" height="240" rx="16" ry="16" fill="#161F33" stroke="#25314D" stroke-width="1" /><text x="508" y="150" font-family="Inter, Arial, sans-serif" font-size="18" fill="#F3F6FC" font-weight="600" text-anchor="start">Semantic Palette</text><rect x="944" y="120" width="440" height="240" rx="16" ry="16" fill="#161F33" stroke="#25314D" stroke-width="1" /><text x="964" y="150" font-family="Inter, Arial, sans-serif" font-size="18" fill="#F3F6FC" font-weight="600" text-anchor="start">Chart Palette</text><rect x="52" y="164" width="160" height="44" rx="12" ry="12" fill="#0B1020" stroke="#25314D" stroke-width="1" /><text x="52" y="156" font-family="Inter, Arial, sans-serif" font-size="12" fill="#A8B3C7" font-weight="400" text-anchor="start">Background main</text><text x="64" y="192" font-family="Inter, Arial, sans-serif" font-size="12" fill="#F3F6FC" font-weight="600" text-anchor="start">#0B1020</text><rect x="252" y="164" width="160" height="44" rx="12" ry="12" fill="#12192B" stroke="#25314D" stroke-width="1" /><text x="252" y="156" font-family="Inter, Arial, sans-serif" font-size="12" fill="#A8B3C7" font-weight="400" text-anchor="start">Background secondary</text><text x="264" y="192" font-family="Inter, Arial, sans-serif" font-size="12" fill="#F3F6FC" font-weight="600" text-anchor="start">#12192B</text><rect x="52" y="240" width="160" height="44" rx="12" ry="12" fill="#161F33" stroke="#25314D" stroke-width="1" /><text x="52" y="232" font-family="Inter, Arial, sans-serif" font-size="12" fill="#A8B3C7" font-weight="400" text-anchor="start">Surface / cards</text><text x="64" y="268" font-family="Inter, Arial, sans-serif" font-size="12" fill="#F3F6FC" font-weight="600" text-anchor="start">#161F33</text><rect x="252" y="240" width="160" height="44" rx="12" ry="12" fill="#1D2740" stroke="#25314D" stroke-width="1" /><text x="252" y="232" font-family="Inter, Arial, sans-serif" font-size="12" fill="#A8B3C7" font-weight="400" text-anchor="start">Surface hover</text><text x="264" y="268" font-family="Inter, Arial, sans-serif" font-size="12" fill="#F3F6FC" font-weight="600" text-anchor="start">#1D2740</text><rect x="52" y="320" width="160" height="44" rx="12" ry="12" fill="#25314D" stroke="#25314D" stroke-width="1" /><text x="52" y="312" font-family="Inter, Arial, sans-serif" font-size="12" fill="#A8B3C7" font-weight="400" text-anchor="start">Border</text><text x="64" y="348" font-family="Inter, Arial, sans-serif" font-size="12" fill="#F3F6FC" font-weight="600" text-anchor="start">#25314D</text><rect x="252" y="320" width="160" height="44" rx="12" ry="12" fill="#161F33" stroke="#25314D" stroke-width="1" /><text x="252" y="312" font-family="Inter, Arial, sans-serif" font-size="12" fill="#A8B3C7" font-weight="400" text-anchor="start">Primary text</text><text x="264" y="348" font-family="Inter, Arial, sans-serif" font-size="12" fill="#F3F6FC" font-weight="600" text-anchor="start">#F3F6FC</text><rect x="52" y="396" width="160" height="44" rx="12" ry="12" fill="#161F33" stroke="#25314D" stroke-width="1" /><text x="52" y="388" font-family="Inter, Arial, sans-serif" font-size="12" fill="#A8B3C7" font-weight="400" text-anchor="start">Secondary text</text><text x="64" y="424" font-family="Inter, Arial, sans-serif" font-size="12" fill="#F3F6FC" font-weight="600" text-anchor="start">#A8B3C7</text><rect x="252" y="396" width="160" height="44" rx="12" ry="12" fill="#161F33" stroke="#25314D" stroke-width="1" /><text x="252" y="388" font-family="Inter, Arial, sans-serif" font-size="12" fill="#A8B3C7" font-weight="400" text-anchor="start">Muted text</text><text x="264" y="424" font-family="Inter, Arial, sans-serif" font-size="12" fill="#F3F6FC" font-weight="600" text-anchor="start">#7F8CA3</text><text x="508" y="181" font-family="Inter, Arial, sans-serif" font-size="13" fill="#A8B3C7" font-weight="500" text-anchor="start">AI / active</text><rect x="728" y="170" width="180" height="18" rx="9" ry="9" fill="#4F7CFF" /><text x="734" y="183" font-family="Inter, Arial, sans-serif" font-size="11" fill="#F3F6FC" font-weight="700" text-anchor="start">#4F7CFF</text><text x="508" y="209" font-family="Inter, Arial, sans-serif" font-size="13" fill="#A8B3C7" font-weight="500" text-anchor="start">Positive / bullish</text><rect x="728" y="198" width="180" height="18" rx="9" ry="9" fill="#18C37E" /><text x="734" y="211" font-family="Inter, Arial, sans-serif" font-size="11" fill="#0B1020" font-weight="700" text-anchor="start">#18C37E</text><text x="508" y="237" font-family="Inter, Arial, sans-serif" font-size="13" fill="#A8B3C7" font-weight="500" text-anchor="start">Neutral / medium</text><rect x="728" y="226" width="180" height="18" rx="9" ry="9" fill="#F5B942" /><text x="734" y="239" font-family="Inter, Arial, sans-serif" font-size="11" fill="#0B1020" font-weight="700" text-anchor="start">#F5B942</text><text x="508" y="265" font-family="Inter, Arial, sans-serif" font-size="13" fill="#A8B3C7" font-weight="500" text-anchor="start">Negative / bearish</text><rect x="728" y="254" width="180" height="18" rx="9" ry="9" fill="#F04D5E" /><text x="734" y="267" font-family="Inter, Arial, sans-serif" font-size="11" fill="#F3F6FC" font-weight="700" text-anchor="start">#F04D5E</text><text x="508" y="293" font-family="Inter, Arial, sans-serif" font-size="13" fill="#A8B3C7" font-weight="500" text-anchor="start">Info / macro</text><rect x="728" y="282" width="180" height="18" rx="9" ry="9" fill="#37B6FF" /><text x="734" y="295" font-family="Inter, Arial, sans-serif" font-size="11" fill="#F3F6FC" font-weight="700" text-anchor="start">#37B6FF</text><text x="508" y="321" font-family="Inter, Arial, sans-serif" font-size="13" fill="#A8B3C7" font-weight="500" text-anchor="start">Commodity</text><rect x="728" y="310" width="180" height="18" rx="9" ry="9" fill="#8B7CFF" /><text x="734" y="323" font-family="Inter, Arial, sans-serif" font-size="11" fill="#F3F6FC" font-weight="700" text-anchor="start">#8B7CFF</text><text x="964" y="181" font-family="Inter, Arial, sans-serif" font-size="13" fill="#A8B3C7" font-weight="500" text-anchor="start">Price up</text><line x1="1184" y1="179" x2="1364" y2="179" stroke="#18C37E" stroke-width="4" /><text x="1190" y="183" font-family="Inter, Arial, sans-serif" font-size="11" fill="#F3F6FC" font-weight="700" text-anchor="start">#18C37E</text><text x="964" y="209" font-family="Inter, Arial, sans-serif" font-size="13" fill="#A8B3C7" font-weight="500" text-anchor="start">Price down</text><line x1="1184" y1="207" x2="1364" y2="207" stroke="#F04D5E" stroke-width="4" /><text x="1190" y="211" font-family="Inter, Arial, sans-serif" font-size="11" fill="#F3F6FC" font-weight="700" text-anchor="start">#F04D5E</text><text x="964" y="237" font-family="Inter, Arial, sans-serif" font-size="13" fill="#A8B3C7" font-weight="500" text-anchor="start">Neutral</text><line x1="1184" y1="235" x2="1364" y2="235" stroke="#94A3B8" stroke-width="4" /><text x="1190" y="239" font-family="Inter, Arial, sans-serif" font-size="11" fill="#F3F6FC" font-weight="700" text-anchor="start">#94A3B8</text><text x="964" y="265" font-family="Inter, Arial, sans-serif" font-size="13" fill="#A8B3C7" font-weight="500" text-anchor="start">Regime low</text><line x1="1184" y1="263" x2="1364" y2="263" stroke="#18C37E" stroke-width="4" /><text x="1190" y="267" font-family="Inter, Arial, sans-serif" font-size="11" fill="#F3F6FC" font-weight="700" text-anchor="start">#18C37E</text><text x="964" y="293" font-family="Inter, Arial, sans-serif" font-size="13" fill="#A8B3C7" font-weight="500" text-anchor="start">Regime medium</text><line x1="1184" y1="291" x2="1364" y2="291" stroke="#F5B942" stroke-width="4" /><text x="1190" y="295" font-family="Inter, Arial, sans-serif" font-size="11" fill="#F3F6FC" font-weight="700" text-anchor="start">#F5B942</text><text x="964" y="321" font-family="Inter, Arial, sans-serif" font-size="13" fill="#A8B3C7" font-weight="500" text-anchor="start">Regime high</text><line x1="1184" y1="319" x2="1364" y2="319" stroke="#F04D5E" stroke-width="4" /><text x="1190" y="323" font-family="Inter, Arial, sans-serif" font-size="11" fill="#F3F6FC" font-weight="700" text-anchor="start">#F04D5E</text><rect x="32" y="392" width="1376" height="180" rx="16" ry="16" fill="#161F33" stroke="#25314D" stroke-width="1" /><text x="52" y="422" font-family="Inter, Arial, sans-serif" font-size="18" fill="#F3F6FC" font-weight="600" text-anchor="start">Surface Samples</text><rect x="60" y="450" width="280" height="84" rx="16" ry="16" fill="#0B1020" stroke="#25314D" stroke-width="1" /><text x="76" y="476" font-family="Inter, Arial, sans-serif" font-size="14" fill="#F3F6FC" font-weight="600" text-anchor="start">App background</text><text x="76" y="502" font-family="Inter, Arial, sans-serif" font-size="12" fill="#7F8CA3" font-weight="400" text-anchor="start">Text sample / chip / border</text><rect x="76" y="518" width="67" height="24" rx="999" ry="999" fill="#4F7CFF" /><text x="109.5" y="534.0" font-family="Inter, Arial, sans-serif" font-size="11" fill="#fff" font-weight="600" text-anchor="middle">Example</text><rect x="380" y="450" width="280" height="84" rx="16" ry="16" fill="#12192B" stroke="#25314D" stroke-width="1" /><text x="396" y="476" font-family="Inter, Arial, sans-serif" font-size="14" fill="#F3F6FC" font-weight="600" text-anchor="start">Panel</text><text x="396" y="502" font-family="Inter, Arial, sans-serif" font-size="12" fill="#7F8CA3" font-weight="400" text-anchor="start">Text sample / chip / border</text><rect x="396" y="518" width="67" height="24" rx="999" ry="999" fill="#4F7CFF" /><text x="429.5" y="534.0" font-family="Inter, Arial, sans-serif" font-size="11" fill="#fff" font-weight="600" text-anchor="middle">Example</text><rect x="700" y="450" width="280" height="84" rx="16" ry="16" fill="#161F33" stroke="#25314D" stroke-width="1" /><text x="716" y="476" font-family="Inter, Arial, sans-serif" font-size="14" fill="#F3F6FC" font-weight="600" text-anchor="start">Card</text><text x="716" y="502" font-family="Inter, Arial, sans-serif" font-size="12" fill="#7F8CA3" font-weight="400" text-anchor="start">Text sample / chip / border</text><rect x="716" y="518" width="67" height="24" rx="999" ry="999" fill="#4F7CFF" /><text x="749.5" y="534.0" font-family="Inter, Arial, sans-serif" font-size="11" fill="#fff" font-weight="600" text-anchor="middle">Example</text><rect x="1020" y="450" width="280" height="84" rx="16" ry="16" fill="#1D2740" stroke="#25314D" stroke-width="1" /><text x="1036" y="476" font-family="Inter, Arial, sans-serif" font-size="14" fill="#F3F6FC" font-weight="600" text-anchor="start">Hover</text><text x="1036" y="502" font-family="Inter, Arial, sans-serif" font-size="12" fill="#7F8CA3" font-weight="400" text-anchor="start">Text sample / chip / border</text><rect x="1036" y="518" width="67" height="24" rx="999" ry="999" fill="#4F7CFF" /><text x="1069.5" y="534.0" font-family="Inter, Arial, sans-serif" font-size="11" fill="#fff" font-weight="600" text-anchor="middle">Example</text>
</svg>