<svg xmlns="http://www.w3.org/2000/svg" width="1440" height="700" viewBox="0 0 1440 700" fill="none">
<style>
.small { font-family: Inter, Arial, sans-serif; font-size: 12px; fill: #7F8CA3; }
</style>
<rect x="0" y="0" width="1440" height="700" fill="#0B1020" /><text x="32" y="56" font-family="Inter, Arial, sans-serif" font-size="28" fill="#F3F6FC" font-weight="700" text-anchor="start">00_Foundations / Spacing · Radius · Shadows</text><text x="32" y="86" font-family="Inter, Arial, sans-serif" font-size="14" fill="#A8B3C7" font-weight="400" text-anchor="start">Core layout rhythm and UI primitives for consistent desktop screens.</text><rect x="32" y="120" width="440" height="300" rx="16" ry="16" fill="#161F33" stroke="#25314D" stroke-width="1" /><text x="52" y="150" font-family="Inter, Arial, sans-serif" font-size="18" fill="#F3F6FC" font-weight="600" text-anchor="start">Spacing Scale</text><text x="56" y="180" font-family="Inter, Arial, sans-serif" font-size="13" fill="#A8B3C7" font-weight="600" text-anchor="start">4px</text><rect x="120" y="170" width="16" height="12" rx="6" ry="6" fill="#4F7CFF" /><text x="56" y="204" font-family="Inter, Arial, sans-serif" font-size="13" fill="#A8B3C7" font-weight="600" text-anchor="start">8px</text><rect x="120" y="194" width="32" height="12" rx="6" ry="6" fill="#4F7CFF" /><text x="56" y="228" font-family="Inter, Arial, sans-serif" font-size="13" fill="#A8B3C7" font-weight="600" text-anchor="start">12px</text><rect x="120" y="218" width="48" height="12" rx="6" ry="6" fill="#4F7CFF" /><text x="56" y="252" font-family="Inter, Arial, sans-serif" font-size="13" fill="#A8B3C7" font-weight="600" text-anchor="start">16px</text><rect x="120" y="242" width="64" height="12" rx="6" ry="6" fill="#4F7CFF" /><text x="56" y="276" font-family="Inter, Arial, sans-serif" font-size="13" fill="#A8B3C7" font-weight="600" text-anchor="start">20px</text><rect x="120" y="266" width="80" height="12" rx="6" ry="6" fill="#4F7CFF" /><text x="56" y="300" font-family="Inter, Arial, sans-serif" font-size="13" fill="#A8B3C7" font-weight="600" text-anchor="start">24px</text><rect x="120" y="290" width="96" height="12" rx="6" ry="6" fill="#4F7CFF" /><text x="56" y="324" font-family="Inter, Arial, sans-serif" font-size="13" fill="#A8B3C7" font-weight="600" text-anchor="start">32px</text><rect x="120" y="314" width="128" height="12" rx="6" ry="6" fill="#4F7CFF" /><text x="56" y="348" font-family="Inter, Arial, sans-serif" font-size="13" fill="#A8B3C7" font-weight="600" text-anchor="start">40px</text><rect x="120" y="338" width="160" height="12" rx="6" ry="6" fill="#4F7CFF" /><text x="56" y="372" font-family="Inter, Arial, sans-serif" font-size="13" fill="#A8B3C7" font-weight="600" text-anchor="start">48px</text><rect x="120" y="362" width="192" height="12" rx="6" ry="6" fill="#4F7CFF" /><rect x="488" y="120" width="440" height="300" rx="16" ry="16" fill="#161F33" stroke="#25314D" stroke-width="1" /><text x="508" y="150" font-family="Inter, Arial, sans-serif" font-size="18" fill="#F3F6FC" font-weight="600" text-anchor="start">Radius Scale</text><rect x="516" y="176" width="140" height="48" rx="12" ry="12" fill="#1D2740" stroke="#25314D" stroke-width="1" /><text x="680" y="206" font-family="Inter, Arial, sans-serif" font-size="14" fill="#A8B3C7" font-weight="500" text-anchor="start">Buttons / input</text><text x="876" y="206" font-family="Inter, Arial, sans-serif" font-size="14" fill="#F3F6FC" font-weight="700" text-anchor="end">12px</text><rect x="516" y="238" width="140" height="48" rx="16" ry="16" fill="#1D2740" stroke="#25314D" stroke-width="1" /><text x="680" y="268" font-family="Inter, Arial, sans-serif" font-size="14" fill="#A8B3C7" font-weight="500" text-anchor="start">Cards</text><text x="876" y="268" font-family="Inter, Arial, sans-serif" font-size="14" fill="#F3F6FC" font-weight="700" text-anchor="end">16px</text><rect x="516" y="300" width="140" height="48" rx="20" ry="20" fill="#1D2740" stroke="#25314D" stroke-width="1" /><text x="680" y="330" font-family="Inter, Arial, sans-serif" font-size="14" fill="#A8B3C7" font-weight="500" text-anchor="start">Large panels</text><text x="876" y="330" font-family="Inter, Arial, sans-serif" font-size="14" fill="#F3F6FC" font-weight="700" text-anchor="end">20px</text><rect x="516" y="362" width="140" height="48" rx="24" ry="24" fill="#1D2740" stroke="#25314D" stroke-width="1" /><text x="680" y="392" font-family="Inter, Arial, sans-serif" font-size="14" fill="#A8B3C7" font-weight="500" text-anchor="start">Chips</text><text x="876" y="392" font-family="Inter, Arial, sans-serif" font-size="14" fill="#F3F6FC" font-weight="700" text-anchor="end">999px</text><rect x="944" y="120" width="440" height="300" rx="16" ry="16" fill="#161F33" stroke="#25314D" stroke-width="1" /><text x="964" y="150" font-family="Inter, Arial, sans-serif" font-size="18" fill="#F3F6FC" font-weight="600" text-anchor="start">Shadow Rules</text><text x="968" y="176" font-family="Inter, Arial, sans-serif" font-size="14" fill="#A8B3C7" font-weight="600" text-anchor="start">Primary shadow</text><text x="968" y="204" font-family="Inter, Arial, sans-serif" font-size="13" fill="#F3F6FC" font-weight="400" text-anchor="start">0 8 24 rgba(0, 0, 0, 0.18)</text><rect x="980" y="240" width="120" height="44" rx="16" ry="16" fill="#161F33" stroke="#25314D" stroke-width="1" opacity="1" /><rect x="984" y="244" width="120" height="44" rx="16" ry="16" fill="#000000" opacity="0.1" /><rect x="980" y="240" width="120" height="44" rx="16" ry="16" fill="#161F33" stroke="#25314D" stroke-width="1" /><text x="1124" y="268" font-family="Inter, Arial, sans-serif" font-size="13" fill="#A8B3C7" font-weight="400" text-anchor="start">Depth 1</text><rect x="988" y="298" width="120" height="44" rx="16" ry="16" fill="#161F33" stroke="#25314D" stroke-width="1" opacity="1" /><rect x="992" y="302" width="120" height="44" rx="16" ry="16" fill="#000000" opacity="0.14" /><rect x="988" y="298" width="120" height="44" rx="16" ry="16" fill="#161F33" stroke="#25314D" stroke-width="1" /><text x="1124" y="326" font-family="Inter, Arial, sans-serif" font-size="13" fill="#A8B3C7" font-weight="400" text-anchor="start">Depth 2</text><rect x="996" y="356" width="120" height="44" rx="16" ry="16" fill="#161F33" stroke="#25314D" stroke-width="1" opacity="1" /><rect x="1000" y="360" width="120" height="44" rx="16" ry="16" fill="#000000" opacity="0.18" /><rect x="996" y="356" width="120" height="44" rx="16" ry="16" fill="#161F33" stroke="#25314D" stroke-width="1" /><text x="1124" y="384" font-family="Inter, Arial, sans-serif" font-size="13" fill="#A8B3C7" font-weight="400" text-anchor="start">Depth 3</text>
</svg>