<svg xmlns="http://www.w3.org/2000/svg" width="1600" height="1000" viewBox="0 0 1600 1000" fill="none">
<style>
.small { font-family: Inter, Arial, sans-serif; font-size: 12px; fill: #7F8CA3; }
</style>
<rect x="0" y="0" width="1600" height="1000" fill="#0B1020" /><text x="40" y="56" font-family="Inter, Arial, sans-serif" font-size="28" fill="#F3F6FC" font-weight="700" text-anchor="start">04_Prototype / Flow</text><text x="40" y="86" font-family="Inter, Arial, sans-serif" font-size="14" fill="#A8B3C7" font-weight="400" text-anchor="start">Importable map of key user paths and page relationships</text><rect x="80" y="180" width="260" height="120" rx="20" ry="20" fill="#161F33" stroke="#4F7CFF" stroke-width="2" /><text x="210.0" y="232" font-family="Inter, Arial, sans-serif" font-size="24" fill="#F3F6FC" font-weight="700" text-anchor="middle">Login</text><text x="210.0" y="262" font-family="Inter, Arial, sans-serif" font-size="13" fill="#7F8CA3" font-weight="400" text-anchor="middle">Core screen</text><rect x="420" y="180" width="300" height="140" rx="20" ry="20" fill="#161F33" stroke="#4F7CFF" stroke-width="2" /><text x="570.0" y="232" font-family="Inter, Arial, sans-serif" font-size="24" fill="#F3F6FC" font-weight="700" text-anchor="middle">Dashboard</text><text x="570.0" y="262" font-family="Inter, Arial, sans-serif" font-size="13" fill="#7F8CA3" font-weight="400" text-anchor="middle">Core screen</text><rect x="820" y="90" width="260" height="120" rx="20" ry="20" fill="#161F33" stroke="#37B6FF" stroke-width="2" /><text x="950.0" y="142" font-family="Inter, Arial, sans-serif" font-size="24" fill="#F3F6FC" font-weight="700" text-anchor="middle">Assets</text><text x="950.0" y="172" font-family="Inter, Arial, sans-serif" font-size="13" fill="#7F8CA3" font-weight="400" text-anchor="middle">Core screen</text><rect x="1180" y="180" width="300" height="140" rx="20" ry="20" fill="#161F33" stroke="#18C37E" stroke-width="2" /><text x="1330.0" y="232" font-family="Inter, Arial, sans-serif" font-size="24" fill="#F3F6FC" font-weight="700" text-anchor="middle">Asset Details</text><text x="1330.0" y="262" font-family="Inter, Arial, sans-serif" font-size="13" fill="#7F8CA3" font-weight="400" text-anchor="middle">Core screen</text><rect x="820" y="310" width="260" height="120" rx="20" ry="20" fill="#161F33" stroke="#F5B942" stroke-width="2" /><text x="950.0" y="362" font-family="Inter, Arial, sans-serif" font-size="24" fill="#F3F6FC" font-weight="700" text-anchor="middle">News &amp; Events</text><text x="950.0" y="392" font-family="Inter, Arial, sans-serif" font-size="13" fill="#7F8CA3" font-weight="400" text-anchor="middle">Core screen</text><rect x="420" y="420" width="300" height="140" rx="20" ry="20" fill="#161F33" stroke="#8B7CFF" stroke-width="2" /><text x="570.0" y="472" font-family="Inter, Arial, sans-serif" font-size="24" fill="#F3F6FC" font-weight="700" text-anchor="middle">Forecasts</text><text x="570.0" y="502" font-family="Inter, Arial, sans-serif" font-size="13" fill="#7F8CA3" font-weight="400" text-anchor="middle">Core screen</text><line x1="340" y1="240" x2="420" y2="240" stroke="#4F7CFF" stroke-width="2" /><polygon points="420,240 411.33974596215563,245.0 411.33974596215563,235.0" fill="#4F7CFF" /><line x1="720" y1="220" x2="820" y2="150" stroke="#37B6FF" stroke-width="2" /><polygon points="820,150 815.7725551742107,159.06248918591942 810.0379317305774,150.87016998072903" fill="#37B6FF" /><line x1="720" y1="250" x2="1180" y2="250" stroke="#18C37E" stroke-width="2" /><polygon points="1180,250 1171.3397459621556,255.0 1171.3397459621556,245.0" fill="#18C37E" /><line x1="720" y1="290" x2="820" y2="370" stroke="#F5B942" stroke-width="2" /><polygon points="820,370 810.1140025022221,368.4943262392106 816.3609529777664,360.6856381447802" fill="#F5B942" /><line x1="570" y1="320" x2="570" y2="420" stroke="#8B7CFF" stroke-width="2" /><polygon points="570,420 565.0,411.33974596215563 575.0,411.33974596215563" fill="#8B7CFF" /><line x1="950" y1="430" x2="1180" y2="300" stroke="#18C37E" stroke-width="2" /><polygon points="1180,300 1174.9209909441163,308.6141550375095 1170.0004183774372,299.90852665030815" fill="#18C37E" /><line x1="1080" y1="150" x2="1180" y2="220" stroke="#18C37E" stroke-width="2" /><polygon points="1180,220 1170.0379317305774,219.12983001927097 1175.7725551742105,210.93751081408058" fill="#18C37E" /><text x="360" y="228" font-family="Inter, Arial, sans-serif" font-size="12" fill="#7F8CA3" font-weight="400" text-anchor="start">Login button</text><text x="746" y="174" font-family="Inter, Arial, sans-serif" font-size="12" fill="#7F8CA3" font-weight="400" text-anchor="start">View assets</text><text x="932" y="214" font-family="Inter, Arial, sans-serif" font-size="12" fill="#7F8CA3" font-weight="400" text-anchor="start">Asset card</text><text x="744" y="340" font-family="Inter, Arial, sans-serif" font-size="12" fill="#7F8CA3" font-weight="400" text-anchor="start">Open feed</text><text x="590" y="376" font-family="Inter, Arial, sans-serif" font-size="12" fill="#7F8CA3" font-weight="400" text-anchor="start">Open forecasts</text><text x="1070" y="340" font-family="Inter, Arial, sans-serif" font-size="12" fill="#7F8CA3" font-weight="400" text-anchor="start">Linked event</text>
</svg>